<svg width="128" height="126" viewBox="0 0 128 126" fill="none" xmlns="http://www.w3.org/2000/svg">
<path d="M32.7362 91.5389H7.88275C6.13689 91.6074 4.43455 90.9841 3.14574 89.8044C1.85692 88.6247 1.08581 86.984 1 85.2389V20.4749C1.08175 18.7284 1.85165 17.0852 3.14139 15.9047C4.43113 14.7242 6.1358 14.1022 7.88275 14.1749H120.102C121.85 14.1022 123.556 14.7236 124.849 15.9037C126.141 17.0839 126.914 18.727 127 20.4749V85.1917C126.91 86.9382 126.136 88.5789 124.844 89.7582C123.553 90.9374 121.849 91.5603 120.102 91.4917H95.248" fill="#F5F5F6"/>
<path d="M32.7363 91.5389H7.88275C6.13689 91.6074 4.43455 90.9841 3.14574 89.8044C1.85692 88.6247 1.08581 86.984 1 85.2389V20.4749C1.08175 18.7284 1.85165 17.0852 3.14139 15.9047C4.43113 14.7242 6.1358 14.1022 7.88275 14.1749H120.102C121.85 14.1022 123.556 14.7236 124.849 15.9037C126.141 17.0839 126.914 18.727 127 20.4749V85.1917C126.91 86.9382 126.136 88.5789 124.844 89.7582C123.553 90.9374 121.849 91.5603 120.102 91.4917H95.248" stroke="#C6D2D9" stroke-width="2" stroke-linecap="round" stroke-linejoin="round"/>
<path d="M15.2263 25.6252C15.2263 26.9409 14.1597 28.0074 12.844 28.0074C11.5283 28.0074 10.4618 26.9409 10.4618 25.6252C10.4618 24.3095 11.5283 23.2429 12.844 23.2429C14.1597 23.2429 15.2263 24.3095 15.2263 25.6252Z" fill="#C6D2D9" stroke="#C6D2D9"/>
<path d="M24.6762 25.6252C24.6762 26.9409 23.6097 28.0074 22.294 28.0074C20.9783 28.0074 19.9117 26.9409 19.9117 25.6252C19.9117 24.3095 20.9783 23.2429 22.294 23.2429C23.6097 23.2429 24.6762 24.3095 24.6762 25.6252Z" fill="#C6D2D9" stroke="#C6D2D9"/>
<path d="M34.1263 25.6252C34.1263 26.9409 33.0597 28.0074 31.744 28.0074C30.4283 28.0074 29.3618 26.9409 29.3618 25.6252C29.3618 24.3095 30.4283 23.2429 31.744 23.2429C33.0597 23.2429 34.1263 24.3095 34.1263 25.6252Z" fill="#C6D2D9" stroke="#C6D2D9"/>
<path d="M64 112.628C82.606 112.628 97.6892 97.5449 97.6892 78.9389C97.6892 60.3328 82.606 45.2496 64 45.2496C45.3939 45.2496 30.3107 60.3328 30.3107 78.9389C30.3107 97.5449 45.3939 112.628 64 112.628Z" fill="white" stroke="#F79841" stroke-width="2" stroke-linecap="round" stroke-linejoin="round"/>
<path opacity="0.5" d="M64 112.644C72.937 112.644 81.508 109.094 87.8275 102.774C94.1469 96.4548 97.6971 87.8838 97.6971 78.9468C97.6971 70.0097 94.1469 61.4387 87.8275 55.1193C81.508 48.7999 72.937 45.2496 64 45.2496V112.644Z" fill="#F79841"/>
<path d="M82.963 60.0074L78.931 64.0394" stroke="#F79841" stroke-width="2" stroke-linecap="round" stroke-linejoin="round"/>
<path d="M64.2047 52.4474V58.1646" stroke="#F79841" stroke-width="2" stroke-linecap="round" stroke-linejoin="round"/>
<path d="M64.2047 99.8392V105.556" stroke="#F79841" stroke-width="2" stroke-linecap="round" stroke-linejoin="round"/>
<path d="M90.8222 78.9705H85.105" stroke="#F79841" stroke-width="2" stroke-linecap="round" stroke-linejoin="round"/>
<path d="M82.963 97.9492L78.931 93.9015" stroke="#F79841" stroke-width="2" stroke-linecap="round" stroke-linejoin="round"/>
<path d="M45.0213 60.0074L49.0533 64.0394" stroke="#F79841" stroke-width="2" stroke-linecap="round" stroke-linejoin="round"/>
<path d="M45.0213 97.9492L49.0533 93.9015" stroke="#F79841" stroke-width="2" stroke-linecap="round" stroke-linejoin="round"/>
<path d="M40.123 83.6639C40.1162 83.4995 40.1438 83.3353 40.2041 83.1822C40.2645 83.029 40.3561 82.8901 40.4733 82.7744C40.5905 82.6587 40.7305 82.5688 40.8844 82.5104C41.0384 82.4521 41.2028 82.4265 41.3672 82.4355C41.6286 82.4504 41.8821 82.5302 42.1048 82.6677C42.3276 82.8052 42.5125 82.996 42.643 83.223C42.8039 83.4929 43.0359 83.7136 43.3137 83.8608C43.5914 84.008 43.9042 84.0761 44.218 84.0577C44.4495 84.0734 44.6817 84.0377 44.8978 83.9532C45.1139 83.8687 45.3087 83.7375 45.4682 83.5689C45.6277 83.4004 45.748 83.1987 45.8205 82.9782C45.893 82.7578 45.9159 82.524 45.8875 82.2937C45.9174 82.0401 45.8918 81.7829 45.8126 81.5401C45.7334 81.2973 45.6023 81.0746 45.4286 80.8874C45.2549 80.7002 45.0426 80.553 44.8064 80.4559C44.5701 80.3587 44.3157 80.3141 44.0605 80.325H43.9187C43.6075 80.325 43.3091 80.2013 43.089 79.9813C42.869 79.7612 42.7454 79.4628 42.7454 79.1516C42.7454 78.8404 42.869 78.5419 43.089 78.3219C43.3091 78.1018 43.6075 77.9782 43.9187 77.9782H44.0605C44.2755 77.9786 44.4884 77.9349 44.6859 77.85C44.8834 77.765 45.0614 77.6404 45.209 77.484C45.3565 77.3276 45.4705 77.1426 45.5439 76.9405C45.6172 76.7384 45.6484 76.5233 45.6355 76.3087C45.6521 76.0977 45.6227 75.8855 45.5494 75.6869C45.4761 75.4883 45.3607 75.3079 45.211 75.1582C45.0613 75.0085 44.8809 74.8931 44.6823 74.8198C44.4837 74.7465 44.2715 74.7171 44.0605 74.7337C43.7755 74.7123 43.4909 74.7795 43.2456 74.9261C43.0003 75.0727 42.8063 75.2916 42.6902 75.5527C42.5805 75.7864 42.4069 75.9843 42.1895 76.1236C41.9722 76.2629 41.7199 76.338 41.4617 76.3402C41.2986 76.3469 41.1359 76.3197 40.9838 76.2603C40.8318 76.2009 40.6937 76.1106 40.5782 75.9952C40.4628 75.8798 40.3725 75.7417 40.3132 75.5896C40.2538 75.4375 40.2266 75.2748 40.2332 75.1117C40.2403 74.8727 40.2938 74.6373 40.3907 74.4187C40.7651 73.7584 41.3229 73.221 41.9967 72.8715C42.6705 72.5221 43.4311 72.3756 44.1865 72.45C44.7129 72.3847 45.2471 72.4329 45.7533 72.5913C46.2595 72.7497 46.726 73.0146 47.1214 73.3681C47.5167 73.7217 47.8318 74.1558 48.0455 74.6413C48.2592 75.1268 48.3665 75.6523 48.3602 76.1827C48.3601 76.7415 48.2148 77.2908 47.9387 77.7767C47.6627 78.2626 47.2652 78.6685 46.7852 78.9547C47.3565 79.2768 47.8253 79.7537 48.1373 80.3305C48.4494 80.9073 48.5922 81.5605 48.5492 82.215C48.5553 82.7829 48.4431 83.3459 48.2199 83.8682C47.9966 84.3905 47.6671 84.8606 47.2524 85.2487C46.8376 85.6368 46.3467 85.9344 45.8107 86.1225C45.2748 86.3106 44.7056 86.3852 44.1392 86.3415C43.3497 86.4309 42.5514 86.2823 41.847 85.9146C41.1425 85.5469 40.5641 84.9771 40.186 84.2782C40.1247 84.0796 40.1033 83.8709 40.123 83.6639Z" fill="#F79841"/>
<path d="M50.896 79.4272C50.7877 78.0191 50.8832 76.6028 51.1795 75.222C51.4348 74.3568 51.9829 73.6073 52.7299 73.1016C53.4769 72.596 54.3764 72.3656 55.2745 72.45C56.1705 72.3647 57.0684 72.5929 57.8151 73.0954C58.5618 73.598 59.1112 74.344 59.3695 75.2062C59.6658 76.587 59.7613 78.0034 59.653 79.4115C59.7613 80.8196 59.6658 82.2359 59.3695 83.6167C59.1112 84.479 58.5618 85.2249 57.8151 85.7275C57.0684 86.2301 56.1705 86.4582 55.2745 86.373C54.3784 86.4582 53.4806 86.2301 52.7339 85.7275C51.9872 85.2249 51.4378 84.479 51.1795 83.6167C50.8847 82.241 50.7892 80.8301 50.896 79.4272ZM55.2587 84.0262C55.5542 84.0605 55.8522 83.9892 56.1001 83.8249C56.3479 83.6606 56.5297 83.4139 56.6132 83.1285C56.838 81.9029 56.8963 80.6526 56.7865 79.4115C56.8965 78.1703 56.8382 76.92 56.6132 75.6945C56.5004 75.4308 56.3127 75.2061 56.0733 75.0481C55.8339 74.8902 55.5534 74.806 55.2666 74.806C54.9798 74.806 54.6993 74.8902 54.46 75.0481C54.2206 75.2061 54.0328 75.4308 53.92 75.6945C53.695 76.92 53.6368 78.1703 53.7467 79.4115C53.637 80.6526 53.6952 81.9029 53.92 83.1285C54.0035 83.4139 54.1853 83.6606 54.4332 83.8249C54.6811 83.9892 54.9791 84.0605 55.2745 84.0262H55.2587Z" fill="#F79841"/>
</svg>
