<svg width="149" height="126" viewBox="0 0 149 126" fill="none" xmlns="http://www.w3.org/2000/svg">
<g clip-path="url(#clip0)">
<ellipse opacity="0.1" cx="66.9375" cy="85.8375" rx="57.4875" ry="57.4875" fill="#F37862"/>
<ellipse opacity="0.2" cx="66.9375" cy="85.8374" rx="37.0125" ry="37.0125" fill="#F37862"/>
</g>
<g filter="url(#filter0_d)">
<rect x="88.2" y="29.925" width="36.225" height="36.225" rx="4" fill="white"/>
</g>
<path d="M86.7665 111.715H47.7223L51.8803 76.3718C52.1697 73.9189 53.3497 71.6576 55.1962 70.0172C57.0428 68.3768 59.4273 67.4714 61.8973 67.473H72.6073C75.0772 67.4714 77.4618 68.3768 79.3083 70.0172C81.1548 71.6576 82.3348 73.9189 82.6243 76.3718L86.7665 111.715Z" stroke="#F37862" stroke-width="2" stroke-linecap="round" stroke-linejoin="round"/>
<path opacity="0.5" d="M86.2943 111.715H47.2501L51.4081 76.3718C51.6975 73.9189 52.8775 71.6576 54.724 70.0172C56.5706 68.3768 58.9551 67.4714 61.4251 67.473H72.1351C74.605 67.4714 76.9896 68.3768 78.8361 70.0172C80.6826 71.6576 81.8626 73.9189 82.1521 76.3718L86.2943 111.715Z" fill="#F37862"/>
<path d="M36.4768 111.715H98.012" stroke="#F37862" stroke-width="2" stroke-linecap="round" stroke-linejoin="round"/>
<path d="M72.3395 79.3328L72.9222 88.8143" stroke="#F37862" stroke-width="2" stroke-linecap="round" stroke-linejoin="round"/>
<path d="M31.106 76.1513C32.9083 73.1609 33.5503 69.6131 32.9102 66.1808C32.2702 62.7485 30.3927 59.6705 27.6338 57.5307C24.8749 55.3908 21.4266 54.338 17.943 54.572C14.4594 54.8059 11.1828 56.3103 8.73476 58.7998C6.28675 61.2893 4.83762 64.5907 4.66226 68.0778C4.4869 71.5648 5.5975 74.995 7.7834 77.7175C9.96929 80.44 13.0784 82.2656 16.521 82.8478C19.9636 83.4301 23.5001 82.7285 26.4598 80.8763L32.051 82.9395C32.15 82.9566 32.2512 82.9566 32.3503 82.9395C32.4922 82.9415 32.6325 82.9086 32.7587 82.8436C32.885 82.7786 32.9933 82.6836 33.0742 82.567C33.1551 82.4503 33.2061 82.3155 33.2227 82.1745C33.2392 82.0335 33.2209 81.8906 33.1693 81.7583L31.106 76.1513Z" fill="white" stroke="#C6D2D9" stroke-width="2" stroke-linecap="round" stroke-linejoin="round"/>
<path d="M13.1982 65.6932H20.9945" stroke="#C6D2D9" stroke-width="2" stroke-linecap="round" stroke-linejoin="round"/>
<path d="M13.1982 71.5837H25.3572" stroke="#C6D2D9" stroke-width="2" stroke-linecap="round" stroke-linejoin="round"/>
<path d="M57.2825 15.75H31.4998C30.5347 15.7624 29.6134 16.1545 28.9353 16.8414C28.2573 17.5283 27.8772 18.4546 27.8773 19.4197V37.8C27.8772 38.7651 28.2573 39.6915 28.9353 40.3783C29.6134 41.0652 30.5347 41.4573 31.4998 41.4697H57.2825C57.7644 41.4697 58.2416 41.3748 58.6869 41.1904C59.1321 41.006 59.5366 40.7357 59.8774 40.3949C60.2182 40.0541 60.4885 39.6496 60.6729 39.2044C60.8573 38.7591 60.9523 38.2819 60.9523 37.8V19.4197C60.9523 18.9378 60.8573 18.4606 60.6729 18.0154C60.4885 17.5702 60.2182 17.1656 59.8774 16.8248C59.5366 16.4841 59.1321 16.2138 58.6869 16.0293C58.2416 15.8449 57.7644 15.75 57.2825 15.75Z" fill="#F5F5F6" stroke="#C6D2D9" stroke-width="2" stroke-linecap="round" stroke-linejoin="round"/>
<path d="M27.8773 19.4198L44.4148 30.4448L60.9523 19.4198" stroke="#C6D2D9" stroke-width="2" stroke-linecap="round" stroke-linejoin="round"/>
<path d="M102.714 35.8751C102.082 35.8751 101.476 36.126 101.03 36.5726C100.583 37.0192 100.332 37.6249 100.332 38.2564C100.332 38.888 100.583 39.4937 101.03 39.9402C101.476 40.3868 102.082 40.6377 102.714 40.6377H105.105V38.2564C105.105 37.9429 105.043 37.6324 104.923 37.3428C104.802 37.0533 104.626 36.7903 104.404 36.5691C104.182 36.3478 103.918 36.1726 103.628 36.0535C103.338 35.9345 103.027 35.8738 102.714 35.8751ZM102.714 42.2319H96.3768C95.7452 42.2319 95.1396 42.4827 94.693 42.9293C94.2464 43.3759 93.9955 43.9816 93.9955 44.6131C93.9955 45.2447 94.2464 45.8504 94.693 46.297C95.1396 46.7435 95.7452 46.9944 96.3768 46.9944H102.714C103.345 46.9944 103.951 46.7435 104.397 46.297C104.844 45.8504 105.095 45.2447 105.095 44.6131C105.095 43.9816 104.844 43.3759 104.397 42.9293C103.951 42.4827 103.345 42.2319 102.714 42.2319Z" fill="#2DAECD"/>
<path d="M117.789 44.6133C117.789 43.9817 117.538 43.376 117.091 42.9294C116.645 42.4829 116.039 42.232 115.408 42.232C114.776 42.232 114.17 42.4829 113.724 42.9294C113.277 43.376 113.026 43.9817 113.026 44.6133V46.9945H115.408C116.039 46.9945 116.645 46.7437 117.091 46.2971C117.538 45.8505 117.789 45.2448 117.789 44.6133ZM111.442 44.6133V38.2565C111.463 37.9315 111.417 37.6057 111.307 37.2991C111.198 36.9925 111.026 36.7117 110.803 36.4741C110.58 36.2365 110.311 36.0471 110.013 35.9176C109.714 35.7881 109.392 35.7213 109.066 35.7213C108.74 35.7213 108.418 35.7881 108.119 35.9176C107.82 36.0471 107.551 36.2365 107.328 36.4741C107.106 36.7117 106.934 36.9925 106.824 37.2991C106.714 37.6057 106.668 37.9315 106.69 38.2565V44.6133C106.668 44.9383 106.714 45.2641 106.824 45.5707C106.934 45.8773 107.106 46.1581 107.328 46.3957C107.551 46.6333 107.82 46.8227 108.119 46.9522C108.418 47.0817 108.74 47.1485 109.066 47.1485C109.392 47.1485 109.714 47.0817 110.013 46.9522C110.311 46.8227 110.58 46.6333 110.803 46.3957C111.026 46.1581 111.198 45.8773 111.307 45.5707C111.417 45.2641 111.463 44.9383 111.442 44.6133Z" fill="#2EA677"/>
<path d="M109.091 59.7078C109.722 59.7078 110.328 59.4569 110.774 59.0103C111.221 58.5637 111.472 57.9581 111.472 57.3265C111.472 56.6949 111.221 56.0893 110.774 55.6427C110.328 55.1961 109.722 54.9452 109.091 54.9452H106.68V57.3265C106.679 57.6417 106.742 57.9539 106.864 58.2447C106.985 58.5356 107.163 58.7995 107.387 59.021C107.612 59.2425 107.878 59.4173 108.17 59.5352C108.463 59.6531 108.775 59.7117 109.091 59.7078ZM109.091 53.3511H115.437C116.069 53.3511 116.675 53.1002 117.121 52.6536C117.568 52.207 117.819 51.6013 117.819 50.9698C117.819 50.3382 117.568 49.7325 117.121 49.286C116.675 48.8394 116.069 48.5885 115.437 48.5885H109.091C108.459 48.5885 107.853 48.8394 107.407 49.286C106.96 49.7325 106.709 50.3382 106.709 50.9698C106.709 51.6013 106.96 52.207 107.407 52.6536C107.853 53.1002 108.459 53.3511 109.091 53.3511Z" fill="#EBB22D"/>
<path d="M93.9955 50.97C93.9955 51.6016 94.2464 52.2073 94.693 52.6539C95.1396 53.1004 95.7452 53.3513 96.3768 53.3513C97.0083 53.3513 97.614 53.1004 98.0606 52.6539C98.5072 52.2073 98.7581 51.6016 98.7581 50.97V48.5888H96.3768C95.7452 48.5888 95.1396 48.8397 94.693 49.2862C94.2464 49.7328 93.9955 50.3385 93.9955 50.97ZM100.342 50.97V57.3268C100.321 57.6518 100.367 57.9776 100.477 58.2842C100.587 58.5908 100.758 58.8716 100.981 59.1092C101.204 59.3468 101.473 59.5362 101.772 59.6657C102.071 59.7952 102.393 59.862 102.719 59.862C103.044 59.862 103.366 59.7952 103.665 59.6657C103.964 59.5362 104.233 59.3468 104.456 59.1092C104.679 58.8716 104.85 58.5908 104.96 58.2842C105.07 57.9776 105.116 57.6518 105.095 57.3268V50.97C105.116 50.645 105.07 50.3192 104.96 50.0126C104.85 49.706 104.679 49.4252 104.456 49.1876C104.233 48.95 103.964 48.7606 103.665 48.6311C103.366 48.5016 103.044 48.4348 102.719 48.4348C102.393 48.4348 102.071 48.5016 101.772 48.6311C101.473 48.7606 101.204 48.95 100.981 49.1876C100.758 49.4252 100.587 49.706 100.477 50.0126C100.367 50.3192 100.321 50.645 100.342 50.97Z" fill="#DF1D5B"/>
<defs>
<filter id="filter0_d" x="64.2" y="9.92505" width="84.225" height="84.225" filterUnits="userSpaceOnUse" color-interpolation-filters="sRGB">
<feFlood flood-opacity="0" result="BackgroundImageFix"/>
<feColorMatrix in="SourceAlpha" type="matrix" values="0 0 0 0 0 0 0 0 0 0 0 0 0 0 0 0 0 0 127 0"/>
<feOffset dy="4"/>
<feGaussianBlur stdDeviation="12"/>
<feColorMatrix type="matrix" values="0 0 0 0 0.375248 0 0 0 0 0.375248 0 0 0 0 0.375248 0 0 0 0.2 0"/>
<feBlend mode="normal" in2="BackgroundImageFix" result="effect1_dropShadow"/>
<feBlend mode="normal" in="SourceGraphic" in2="effect1_dropShadow" result="shape"/>
</filter>
<clipPath id="clip0">
<rect width="119.7" height="96.075" fill="white" transform="translate(4.72501 15.75)"/>
</clipPath>
</defs>
</svg>
