<svg width="128" height="126" viewBox="0 0 128 126" fill="none" xmlns="http://www.w3.org/2000/svg">
<path d="M32.0118 91.5389H7.88275C6.13689 91.6074 4.43455 90.9841 3.14574 89.8044C1.85692 88.6247 1.08581 86.984 1 85.2389V20.4749C1.08175 18.7284 1.85165 17.0852 3.14139 15.9047C4.43113 14.7242 6.1358 14.1022 7.88275 14.1749H120.102C121.85 14.1022 123.556 14.7236 124.849 15.9037C126.141 17.0839 126.914 18.727 127 20.4749V85.1917C126.91 86.9382 126.136 88.5789 124.844 89.7582C123.553 90.9374 121.849 91.5603 120.102 91.4917H95.248" fill="#F5F5F6"/>
<path d="M32.0118 91.5389H7.88275C6.13689 91.6074 4.43455 90.9841 3.14574 89.8044C1.85692 88.6247 1.08581 86.984 1 85.2389V20.4749C1.08175 18.7284 1.85165 17.0852 3.14139 15.9047C4.43113 14.7242 6.1358 14.1022 7.88275 14.1749H120.102C121.85 14.1022 123.556 14.7236 124.849 15.9037C126.141 17.0839 126.914 18.727 127 20.4749V85.1917C126.91 86.9382 126.136 88.5789 124.844 89.7582C123.553 90.9374 121.849 91.5603 120.102 91.4917H95.248" stroke="#C6D2D9" stroke-width="2" stroke-linecap="round" stroke-linejoin="round"/>
<path d="M12.844 28.5074C14.4358 28.5074 15.7262 27.217 15.7262 25.6252C15.7262 24.0333 14.4358 22.7429 12.844 22.7429C11.2522 22.7429 9.96175 24.0333 9.96175 25.6252C9.96175 27.217 11.2522 28.5074 12.844 28.5074Z" fill="#C6D2D9"/>
<path d="M22.294 28.5074C23.8858 28.5074 25.1763 27.217 25.1763 25.6252C25.1763 24.0333 23.8858 22.7429 22.294 22.7429C20.7022 22.7429 19.4118 24.0333 19.4118 25.6252C19.4118 27.217 20.7022 28.5074 22.294 28.5074Z" fill="#C6D2D9"/>
<path d="M31.744 28.5074C33.3358 28.5074 34.6263 27.217 34.6263 25.6252C34.6263 24.0333 33.3358 22.7429 31.744 22.7429C30.1522 22.7429 28.8618 24.0333 28.8618 25.6252C28.8618 27.217 30.1522 28.5074 31.744 28.5074Z" fill="#C6D2D9"/>
<path d="M38.3343 103.95H89.7566C90.9633 103.944 92.1501 103.646 93.2122 103.08C94.2744 102.514 95.1792 101.699 95.8469 100.706C96.5146 99.7136 96.9246 98.5737 97.0408 97.3874C97.157 96.2011 96.9758 95.0047 96.5131 93.9039L70.4315 49.4146C69.7951 48.2814 68.8633 47.3369 67.7327 46.6793C66.6021 46.0217 65.3139 45.6749 64.0019 45.6749C62.6898 45.6749 61.4016 46.0217 60.271 46.6793C59.1405 47.3369 58.2086 48.2814 57.5723 49.4146L31.4906 93.9039C31.0369 94.9794 30.8518 96.1468 30.951 97.3078C31.0503 98.4687 31.4308 99.589 32.0606 100.574C32.6904 101.559 33.5509 102.38 34.5695 102.968C35.588 103.555 36.7348 103.892 37.9129 103.95" fill="white"/>
<path d="M38.3601 103.876H89.7598C90.966 103.871 92.1522 103.564 93.2139 102.984C94.2756 102.404 95.18 101.568 95.8474 100.549C96.5149 99.5309 96.9247 98.3617 97.0409 97.1448C97.157 95.9279 96.9758 94.7007 96.5134 93.5716L70.4432 47.936C69.8071 46.7736 68.8756 45.8048 67.7456 45.1302C66.6155 44.4557 65.3279 44.1 64.0164 44.1C62.7049 44.1 61.4173 44.4557 60.2872 45.1302C59.1571 45.8048 58.2257 46.7736 57.5896 47.936L31.4904 93.6452C31.0369 94.7483 30.8519 95.9459 30.951 97.1367C31.0502 98.3275 31.4306 99.4767 32.0601 100.487C32.6896 101.498 33.5497 102.34 34.5679 102.943C35.586 103.545 36.7323 103.891 37.9099 103.95" fill="#F37862" fill-opacity="0.3"/>
<path d="M38.3601 103.876H89.7598C90.966 103.871 92.1522 103.564 93.2139 102.984C94.2756 102.404 95.18 101.568 95.8474 100.549C96.5149 99.5309 96.9247 98.3617 97.0408 97.1448C97.157 95.9279 96.9758 94.7007 96.5134 93.5716L70.4432 47.936C69.8071 46.7736 68.8756 45.8048 67.7456 45.1302C66.6155 44.4557 65.3279 44.1 64.0164 44.1C62.7049 44.1 61.4173 44.4557 60.2872 45.1302C59.1571 45.8048 58.2257 46.7736 57.5896 47.936L31.4903 93.6452C31.0369 94.7483 30.8519 95.9459 30.951 97.1367C31.0502 98.3275 31.4306 99.4767 32.0601 100.487C32.6896 101.498 33.5497 102.34 34.5679 102.943C35.586 103.545 36.7323 103.891 37.9099 103.95" stroke="#F37862" stroke-width="2" stroke-linecap="round" stroke-linejoin="round"/>
<path d="M64 67.725V83.9939M64 91.3316V91.35" stroke="#F37862" stroke-width="2" stroke-linecap="round" stroke-linejoin="round"/>
</svg>
