<svg width="40" height="42" viewBox="0 0 40 42" fill="none" xmlns="http://www.w3.org/2000/svg">
<mask id="mask0" mask-type="alpha" maskUnits="userSpaceOnUse" x="3" y="1" width="34" height="41">
<path fill-rule="evenodd" clip-rule="evenodd" d="M3.63708 1.81836H36.0309V41.0184H3.63708V1.81836Z" fill="white"/>
</mask>
<g mask="url(#mask0)">
<path fill-rule="evenodd" clip-rule="evenodd" d="M31.8662 38.2911H7.80254C7.00799 38.2911 6.36436 37.6474 6.36436 36.8529V28.5856H33.3044V36.8529C33.3044 37.6474 32.6607 38.2911 31.8662 38.2911ZM7.80254 4.54563H31.8662C32.6607 4.54563 33.3044 5.18927 33.3044 5.982V13.7111H6.36436V5.982C6.36436 5.18927 7.00799 4.54563 7.80254 4.54563ZM6.36436 25.8584H33.3044V16.4384H6.36436V25.8584ZM31.8662 1.81836H7.80254C5.50436 1.81836 3.63708 3.68563 3.63708 5.982V36.8529C3.63708 39.1511 5.50436 41.0184 7.80254 41.0184H31.8662C34.1644 41.0184 36.0316 39.1511 36.0316 36.8529V5.982C36.0316 3.68563 34.1644 1.81836 31.8662 1.81836Z" fill="#2BB371"/>
</g>
<path fill-rule="evenodd" clip-rule="evenodd" d="M25.6766 10.365H29.2202C29.9729 10.365 30.5838 9.75406 30.5838 9.00133C30.5838 8.2486 29.9729 7.6377 29.2202 7.6377H25.6766C24.9238 7.6377 24.3129 8.2486 24.3129 9.00133C24.3129 9.75406 24.9238 10.365 25.6766 10.365Z" fill="#2BB371"/>
<path fill-rule="evenodd" clip-rule="evenodd" d="M29.2206 19.7843H25.6769C24.9242 19.7843 24.3133 20.3952 24.3133 21.1479C24.3133 21.9007 24.9242 22.5116 25.6769 22.5116H29.2206C29.9733 22.5116 30.5842 21.9007 30.5842 21.1479C30.5842 20.3952 29.9733 19.7843 29.2206 19.7843Z" fill="#2BB371"/>
<path fill-rule="evenodd" clip-rule="evenodd" d="M29.2206 31.931H25.6769C24.9242 31.931 24.3133 32.5419 24.3133 33.2947C24.3133 34.0474 24.9242 34.6583 25.6769 34.6583H29.2206C29.9733 34.6583 30.5842 34.0474 30.5842 33.2947C30.5842 32.5419 29.9733 31.931 29.2206 31.931Z" fill="#2BB371"/>
</svg>
