<svg width="40" height="40" viewBox="0 0 40 40" fill="none" xmlns="http://www.w3.org/2000/svg">
<path fill-rule="evenodd" clip-rule="evenodd" d="M22.996 33.1898C22.6105 30.6771 20.9124 28.5607 18.5415 27.6407C18.1705 27.5153 17.7924 27.4026 17.4124 27.2916C16.0378 27.1116 14.7996 26.3716 13.9924 25.2462C13.2033 23.7607 13.9505 22.688 15.236 21.0607C15.536 20.6898 15.8233 20.3116 16.0833 19.9389C17.2869 18.348 17.7069 16.2971 17.2287 14.3607C16.4324 12.0444 14.5105 10.2916 12.1305 9.71164C11.3724 9.5171 10.5978 9.40073 9.816 9.36255C15.0433 4.328 23.2469 4.11164 28.7342 8.86255C27.576 9.67164 26.576 10.688 25.7887 11.8625C24.3978 13.8771 24.1978 16.4844 25.2651 18.688C26.2633 20.6171 28.2451 21.8335 30.416 21.8498C30.8542 21.8662 31.2942 21.8626 31.7342 21.8571C32.3015 21.8426 32.8687 21.8589 33.4342 21.9062C32.4869 27.3971 28.3978 31.8189 22.996 33.1898ZM5.45965 19.5353C5.45965 16.5244 6.43056 13.5953 8.22874 11.1807C9.3851 11.0844 10.5506 11.1753 11.6778 11.4516C13.4396 11.8607 14.876 13.1335 15.4942 14.8335C15.8342 16.2589 15.5087 17.7607 14.6087 18.9171C14.3687 19.2607 14.0996 19.6044 13.8287 19.9462C12.5778 21.5262 11.0269 23.4916 12.4124 26.0953C13.4324 27.6589 15.0669 28.7189 16.9124 29.0098C17.2651 29.1135 17.6215 29.2189 17.9615 29.3353C19.7269 30.0353 20.9742 31.6371 21.2196 33.5207C13.5324 34.4789 6.52328 29.0207 5.56692 21.3316C5.49237 20.7353 5.45601 20.1353 5.45965 19.5353ZM33.6269 20.1098C32.9924 20.0553 32.356 20.0371 31.7178 20.0516C31.3124 20.0516 30.9051 20.0607 30.4942 20.0516C28.9724 20.0625 27.5742 19.2171 26.8724 17.8662C26.1015 16.2389 26.2651 14.3244 27.2997 12.8498C28.0324 11.7789 28.9688 10.8625 30.056 10.1516C32.3724 12.728 33.656 16.0698 33.6542 19.5353C33.6542 19.7298 33.6342 19.9189 33.6269 20.1098ZM35.4542 19.5353C35.4633 10.7644 28.3615 3.64619 19.5906 3.63709C14.7124 3.63164 10.1015 5.868 7.08692 9.70437C7.05237 9.74255 7.02328 9.78437 6.99601 9.82619C1.60874 16.7225 2.83055 26.6807 9.72692 32.068C13.2869 34.8498 17.8669 35.9789 22.3124 35.1716C22.3724 35.1716 22.4306 35.1662 22.4887 35.1553C22.5033 35.1553 22.5142 35.1407 22.5287 35.1389C30.0196 33.7044 35.4396 27.1607 35.4542 19.5353Z" fill="#2BB371"/>
</svg>
