<svg width="40" height="40" viewBox="0 0 40 40" fill="none" xmlns="http://www.w3.org/2000/svg">
<path fill-rule="evenodd" clip-rule="evenodd" d="M20.0458 8.18186C19.9295 8.18186 19.7113 8.21641 19.5767 8.45277L6.4422 31.2019C6.30584 31.4382 6.38402 31.6437 6.4422 31.7437C6.50039 31.8473 6.63857 32.0164 6.91129 32.0164H33.1804C33.4549 32.0164 33.5931 31.8455 33.6513 31.7437C33.7095 31.6437 33.7877 31.4382 33.6513 31.2019L20.5167 8.45277C20.3804 8.21641 20.164 8.18186 20.0458 8.18186ZM33.1804 34.7437H6.91131C5.72949 34.7437 4.67131 34.1328 4.0804 33.1091C3.48949 32.0855 3.48949 30.8637 4.07858 29.84L17.2149 7.08914C17.8059 6.0655 18.864 5.45459 20.0459 5.45459C21.2277 5.45459 22.2877 6.0655 22.8786 7.08732V7.08914L36.0131 29.8382C36.604 30.8619 36.604 32.0837 36.0131 33.1073C35.4222 34.131 34.364 34.7437 33.1804 34.7437ZM21.5011 27.6997C21.5011 28.5033 20.8502 29.1542 20.0465 29.1542C19.2429 29.1542 18.592 28.5033 18.592 27.6997C18.592 26.896 19.2429 26.2451 20.0465 26.2451C20.8502 26.247 21.4993 26.8979 21.4993 27.7015V27.7033L21.5011 27.6997ZM18.6831 23.7793C18.6831 24.532 19.2941 25.143 20.0468 25.143C20.7995 25.143 21.4104 24.532 21.4104 23.7793V19.2648C21.4104 18.512 20.7995 17.9011 20.0468 17.9011C19.2941 17.9011 18.6831 18.512 18.6831 19.2648V23.7793Z" fill="#2BB371"/>
</svg>
