<svg width="36" height="35" viewBox="0 0 36 35" fill="none" xmlns="http://www.w3.org/2000/svg">
<path d="M9 15V31C9 31.5304 8.78929 32.0391 8.41421 32.4142C8.03914 32.7893 7.53043 33 7 33H3C2.46957 33 1.96086 32.7893 1.58579 32.4142C1.21071 32.0391 1 31.5304 1 31V17C1 16.4696 1.21071 15.9609 1.58579 15.5858C1.96086 15.2107 2.46957 15 3 15H9ZM9 15C11.1217 15 13.1566 14.1571 14.6569 12.6569C16.1571 11.1566 17 9.12173 17 7V5C17 3.93913 17.4214 2.92172 18.1716 2.17157C18.9217 1.42143 19.9391 1 21 1C22.0609 1 23.0783 1.42143 23.8284 2.17157C24.5786 2.92172 25 3.93913 25 5V15H31C32.0609 15 33.0783 15.4214 33.8284 16.1716C34.5786 16.9217 35 17.9391 35 19L33 29C32.7124 30.2269 32.1667 31.2805 31.4453 32.0019C30.7239 32.7234 29.8657 33.0736 29 33H15C13.4087 33 11.8826 32.3679 10.7574 31.2426C9.63214 30.1174 9 28.5913 9 27" stroke="#2DB572" stroke-width="2" stroke-linecap="round" stroke-linejoin="round"/>
</svg>
