<svg width="50" height="50" viewBox="0 0 50 50" fill="none" xmlns="http://www.w3.org/2000/svg">
<path d="M25 45C36.0457 45 45 36.0457 45 25C45 13.9543 36.0457 5 25 5C13.9543 5 5 13.9543 5 25C5 36.0457 13.9543 45 25 45Z" stroke="#2DB572" stroke-width="2" stroke-linecap="round" stroke-linejoin="round"/>
<path d="M19.4444 34.8665C20.1686 35.6056 21.0329 36.1927 21.9869 36.5936C22.9409 36.9944 23.9652 37.2009 25 37.2009C26.0347 37.2009 27.0591 36.9944 28.013 36.5936C28.967 36.1927 29.8313 35.6056 30.5555 34.8665" stroke="#2DB572" stroke-width="2" stroke-linecap="round" stroke-linejoin="round"/>
<path d="M30.3333 20.7334C30.6809 21.0711 31.0958 21.3394 31.5537 21.5226C32.0116 21.7057 32.5032 21.8001 32.9999 21.8001C33.4966 21.8001 33.9883 21.7057 34.4462 21.5226C34.9041 21.3394 35.319 21.0711 35.6666 20.7334" stroke="#2DB572" stroke-width="2" stroke-linecap="round" stroke-linejoin="round"/>
<path d="M15.4 20.7334C15.7476 21.0711 16.1625 21.3394 16.6204 21.5226C17.0783 21.7057 17.57 21.8001 18.0667 21.8001C18.5634 21.8001 19.0551 21.7057 19.513 21.5226C19.9709 21.3394 20.3858 21.0711 20.7334 20.7334" stroke="#2DB572" stroke-width="2" stroke-linecap="round" stroke-linejoin="round"/>
</svg>
