<svg width="46" height="46" viewBox="0 0 46 46" fill="none" xmlns="http://www.w3.org/2000/svg">
<path d="M36.4166 17.25H17.2499C15.1328 17.25 13.4166 18.9662 13.4166 21.0833V32.5833C13.4166 34.7004 15.1328 36.4167 17.2499 36.4167H36.4166C38.5337 36.4167 40.2499 34.7004 40.2499 32.5833V21.0833C40.2499 18.9662 38.5337 17.25 36.4166 17.25Z" stroke="#2DB572" stroke-width="2" stroke-linecap="round" stroke-linejoin="round"/>
<path d="M26.8333 30.6667C28.9504 30.6667 30.6667 28.9504 30.6667 26.8333C30.6667 24.7162 28.9504 23 26.8333 23C24.7162 23 23 24.7162 23 26.8333C23 28.9504 24.7162 30.6667 26.8333 30.6667Z" stroke="#2DB572" stroke-width="2" stroke-linecap="round" stroke-linejoin="round"/>
<path d="M32.5833 17.2499V13.4166C32.5833 12.3999 32.1795 11.4249 31.4606 10.706C30.7417 9.98712 29.7667 9.58325 28.75 9.58325H9.58333C8.56667 9.58325 7.59165 9.98712 6.87276 10.706C6.15387 11.4249 5.75 12.3999 5.75 13.4166V24.9166C5.75 25.9332 6.15387 26.9083 6.87276 27.6272C7.59165 28.3461 8.56667 28.7499 9.58333 28.7499H13.4167" stroke="#2DB572" stroke-width="2" stroke-linecap="round" stroke-linejoin="round"/>
</svg>
