<svg width="460" height="347" viewBox="0 0 460 347" fill="none" xmlns="http://www.w3.org/2000/svg">
<rect y="82" width="460" height="265" rx="6" fill="white"/>
<path d="M0 103H460V341C460 344.314 457.314 347 454 347H5.99999C2.68628 347 0 344.314 0 341V103Z" fill="#EDF3F6"/>
<path d="M35 82H130V347H35V82Z" fill="#687681"/>
<path d="M0 88C0 84.6863 2.68629 82 6 82H35V347H6C2.68629 347 0 344.314 0 341V88Z" fill="#505C69"/>
<rect x="395" y="90" width="52" height="4" rx="2" fill="#D9E2E8"/>
<path fill-rule="evenodd" clip-rule="evenodd" d="M19.3227 95.0335C19.3227 95.0335 19.9727 95.0049 20.1493 95.0049C22.688 95.0049 24.7532 97.0378 24.7532 99.5368C24.7532 102.035 22.688 104.068 20.1493 104.068C19.9935 104.068 19.379 104.045 19.379 104.045V101.923C19.379 101.923 19.9816 101.954 20.1493 101.954C21.5034 101.954 22.6044 100.869 22.6044 99.5368C22.6044 98.2039 21.5034 97.1195 20.1493 97.1195C19.9638 97.1195 19.4821 97.1387 19.3238 97.1755L19.3227 95.0335ZM16.2106 104.218V98.6922C16.2106 97.2572 18.3588 95.3689 18.3588 95.3689V104.218C18.3588 106.745 16.2711 108.801 13.7039 108.801C11.1374 108.801 9.04972 106.745 9.04972 104.218V102.771H11.1979V104.218C11.1979 105.579 12.322 106.686 13.7039 106.686C15.0865 106.686 16.2106 105.579 16.2106 104.218Z" fill="#FEFEFE"/>
<circle opacity="0.6" cx="18" cy="138" r="5" fill="white"/>
<circle cx="386" cy="92" r="4" fill="#A5B2B9"/>
<circle opacity="0.2" cx="18" cy="168" r="5" fill="white"/>
<circle opacity="0.2" cx="18" cy="200" r="5" fill="white"/>
<circle opacity="0.2" cx="18" cy="232" r="5" fill="white"/>
<rect opacity="0.2" x="52" y="132" width="69" height="6" rx="3" fill="white"/>
<rect opacity="0.1" x="52" y="151" width="69" height="6" rx="3" fill="white"/>
<rect opacity="0.1" x="52" y="170" width="69" height="6" rx="3" fill="white"/>
<rect opacity="0.1" x="52" y="189" width="69" height="6" rx="3" fill="white"/>
<rect x="250" y="114" width="90" height="52" rx="4" fill="white"/>
<path d="M266.5 154.477V154.484M266.5 150.517V151.837V150.517Z" stroke="#F37862" stroke-width="1.5" stroke-linecap="round" stroke-linejoin="round"/>
<path d="M270.902 156.75H262.084C261.879 156.749 261.677 156.696 261.496 156.598C261.315 156.499 261.16 156.358 261.046 156.185C260.932 156.013 260.861 155.814 260.84 155.608C260.819 155.401 260.848 155.193 260.925 155L265.397 147.206C265.506 147.008 265.666 146.842 265.86 146.726C266.054 146.611 266.275 146.55 266.5 146.55C266.725 146.55 266.946 146.611 267.139 146.726C267.333 146.842 267.493 147.008 267.602 147.206L272.074 155C272.15 155.188 272.18 155.392 272.162 155.594C272.143 155.796 272.078 155.991 271.97 156.162C271.862 156.334 271.715 156.476 271.541 156.579C271.368 156.681 271.172 156.74 270.972 156.75" stroke="#F37862" stroke-width="1.5" stroke-linecap="round" stroke-linejoin="round"/>
<path d="M287.756 153.472V154.34H286.188V157H285.278V154.34H280.322V153.556L284.032 147.2H284.984L281.358 153.472H285.278V150.728H286.188V153.472H287.756Z" fill="#54656F"/>
<path d="M289.912 155.628C290.238 155.815 290.602 155.964 291.004 156.076C291.414 156.179 291.811 156.23 292.194 156.23C293.192 156.23 293.962 155.861 294.504 155.124C295.054 154.377 295.33 153.355 295.33 152.058C295.33 151.927 295.32 151.713 295.302 151.414C295.087 152.058 294.718 152.557 294.196 152.912C293.673 153.267 293.034 153.444 292.278 153.444C291.316 153.444 290.556 153.169 289.996 152.618C289.436 152.067 289.156 151.316 289.156 150.364C289.156 149.375 289.454 148.595 290.052 148.026C290.649 147.447 291.452 147.158 292.46 147.158C293.654 147.158 294.588 147.569 295.26 148.39C295.932 149.211 296.268 150.369 296.268 151.862C296.268 152.898 296.104 153.808 295.778 154.592C295.451 155.376 294.984 155.983 294.378 156.412C293.78 156.841 293.076 157.056 292.264 157.056C291.825 157.056 291.358 156.995 290.864 156.874C290.378 156.743 289.93 156.575 289.52 156.37L289.912 155.628ZM292.53 147.998C291.792 147.998 291.195 148.213 290.738 148.642C290.29 149.062 290.066 149.641 290.066 150.378C290.066 151.078 290.276 151.633 290.696 152.044C291.125 152.455 291.704 152.66 292.432 152.66C292.964 152.66 293.426 152.553 293.818 152.338C294.219 152.114 294.522 151.825 294.728 151.47C294.942 151.106 295.05 150.714 295.05 150.294C295.05 149.939 294.956 149.585 294.77 149.23C294.583 148.875 294.298 148.581 293.916 148.348C293.542 148.115 293.08 147.998 292.53 147.998Z" fill="#54656F"/>
<path d="M298.448 155.838C298.625 155.838 298.774 155.899 298.896 156.02C299.017 156.141 299.078 156.291 299.078 156.468C299.078 156.645 299.017 156.799 298.896 156.93C298.774 157.051 298.625 157.112 298.448 157.112C298.271 157.112 298.121 157.051 298 156.93C297.888 156.809 297.832 156.655 297.832 156.468C297.832 156.291 297.888 156.141 298 156.02C298.121 155.899 298.271 155.838 298.448 155.838Z" fill="#54656F"/>
<path d="M301.547 155.628C301.873 155.815 302.237 155.964 302.639 156.076C303.049 156.179 303.446 156.23 303.829 156.23C304.827 156.23 305.597 155.861 306.139 155.124C306.689 154.377 306.965 153.355 306.965 152.058C306.965 151.927 306.955 151.713 306.937 151.414C306.722 152.058 306.353 152.557 305.831 152.912C305.308 153.267 304.669 153.444 303.913 153.444C302.951 153.444 302.191 153.169 301.631 152.618C301.071 152.067 300.791 151.316 300.791 150.364C300.791 149.375 301.089 148.595 301.687 148.026C302.284 147.447 303.087 147.158 304.095 147.158C305.289 147.158 306.223 147.569 306.895 148.39C307.567 149.211 307.903 150.369 307.903 151.862C307.903 152.898 307.739 153.808 307.413 154.592C307.086 155.376 306.619 155.983 306.013 156.412C305.415 156.841 304.711 157.056 303.899 157.056C303.46 157.056 302.993 156.995 302.499 156.874C302.013 156.743 301.565 156.575 301.155 156.37L301.547 155.628ZM304.165 147.998C303.427 147.998 302.83 148.213 302.373 148.642C301.925 149.062 301.701 149.641 301.701 150.378C301.701 151.078 301.911 151.633 302.331 152.044C302.76 152.455 303.339 152.66 304.067 152.66C304.599 152.66 305.061 152.553 305.453 152.338C305.854 152.114 306.157 151.825 306.363 151.47C306.577 151.106 306.685 150.714 306.685 150.294C306.685 149.939 306.591 149.585 306.405 149.23C306.218 148.875 305.933 148.581 305.551 148.348C305.177 148.115 304.715 147.998 304.165 147.998Z" fill="#54656F"/>
<path d="M311.847 147.158C312.631 147.158 313.237 147.415 313.667 147.928C314.105 148.432 314.325 149.146 314.325 150.07C314.325 150.994 314.105 151.713 313.667 152.226C313.237 152.73 312.631 152.982 311.847 152.982C311.072 152.982 310.465 152.73 310.027 152.226C309.597 151.713 309.383 150.994 309.383 150.07C309.383 149.146 309.597 148.432 310.027 147.928C310.465 147.415 311.072 147.158 311.847 147.158ZM311.847 147.746C311.277 147.746 310.839 147.951 310.531 148.362C310.223 148.763 310.069 149.333 310.069 150.07C310.069 150.817 310.223 151.391 310.531 151.792C310.839 152.193 311.277 152.394 311.847 152.394C312.425 152.394 312.869 152.193 313.177 151.792C313.485 151.391 313.639 150.817 313.639 150.07C313.639 149.323 313.48 148.749 313.163 148.348C312.855 147.947 312.416 147.746 311.847 147.746ZM318.525 147.2H319.337L311.973 157H311.147L318.525 147.2ZM318.805 151.218C319.589 151.218 320.195 151.475 320.625 151.988C321.063 152.492 321.283 153.206 321.283 154.13C321.283 155.054 321.063 155.773 320.625 156.286C320.195 156.79 319.589 157.042 318.805 157.042C318.03 157.042 317.423 156.79 316.985 156.286C316.555 155.773 316.341 155.054 316.341 154.13C316.341 153.206 316.555 152.492 316.985 151.988C317.423 151.475 318.03 151.218 318.805 151.218ZM318.805 151.806C318.235 151.806 317.797 152.011 317.489 152.422C317.181 152.823 317.027 153.393 317.027 154.13C317.027 154.877 317.181 155.451 317.489 155.852C317.797 156.253 318.235 156.454 318.805 156.454C319.383 156.454 319.827 156.253 320.135 155.852C320.443 155.451 320.597 154.877 320.597 154.13C320.597 153.383 320.438 152.809 320.121 152.408C319.813 152.007 319.374 151.806 318.805 151.806Z" fill="#54656F"/>
<path d="M262.158 128L261.773 127.048H259.505L259.12 128H257.979L260.107 123.1H261.248L263.341 128H262.158ZM259.869 126.159H261.416L260.646 124.255L259.869 126.159Z" fill="#42535E"/>
<path d="M264.042 123.1H265.232L266.569 126.796L267.913 123.1H269.054L267.108 128H265.967L264.042 123.1Z" fill="#42535E"/>
<path d="M270.692 123.1H274.423V124.017H271.798V125.081H274.157V125.998H271.798V127.083H274.5V128H270.692V123.1Z" fill="#42535E"/>
<path d="M279.478 128L278.701 126.6H278.596H277.574V128H276.468V123.1H278.596C279.235 123.1 279.73 123.249 280.08 123.548C280.43 123.842 280.605 124.26 280.605 124.801C280.605 125.179 280.526 125.503 280.367 125.774C280.213 126.04 279.987 126.243 279.688 126.383L280.731 128H279.478ZM277.574 125.676H278.596C278.904 125.676 279.14 125.606 279.303 125.466C279.471 125.321 279.555 125.111 279.555 124.836C279.555 124.565 279.471 124.362 279.303 124.227C279.14 124.087 278.904 124.017 278.596 124.017H277.574V125.676Z" fill="#42535E"/>
<path d="M286.252 128L285.867 127.048H283.599L283.214 128H282.073L284.201 123.1H285.342L287.435 128H286.252ZM283.963 126.159H285.51L284.74 124.255L283.963 126.159Z" fill="#42535E"/>
<path d="M292.205 125.529H293.164V127.433C292.903 127.624 292.59 127.781 292.226 127.902C291.862 128.019 291.512 128.077 291.176 128.077C290.686 128.077 290.243 127.967 289.846 127.748C289.449 127.524 289.137 127.221 288.908 126.838C288.679 126.451 288.565 126.019 288.565 125.543C288.565 125.072 288.682 124.645 288.915 124.262C289.148 123.875 289.468 123.571 289.874 123.352C290.285 123.133 290.74 123.023 291.239 123.023C291.603 123.023 291.958 123.088 292.303 123.219C292.653 123.35 292.954 123.527 293.206 123.751L292.583 124.542C292.401 124.369 292.191 124.234 291.953 124.136C291.715 124.038 291.477 123.989 291.239 123.989C290.954 123.989 290.693 124.059 290.455 124.199C290.222 124.334 290.037 124.521 289.902 124.759C289.767 124.992 289.699 125.254 289.699 125.543C289.699 125.832 289.767 126.098 289.902 126.341C290.042 126.579 290.229 126.768 290.462 126.908C290.7 127.043 290.961 127.111 291.246 127.111C291.391 127.111 291.547 127.088 291.715 127.041C291.883 126.99 292.046 126.922 292.205 126.838V125.529Z" fill="#42535E"/>
<path d="M295.231 123.1H298.962V124.017H296.337V125.081H298.696V125.998H296.337V127.083H299.039V128H295.231V123.1Z" fill="#42535E"/>
<path d="M262.158 138L261.773 137.048H259.505L259.12 138H257.979L260.107 133.1H261.248L263.341 138H262.158ZM259.869 136.159H261.416L260.646 134.255L259.869 136.159Z" fill="#42535E"/>
<path d="M264.042 133.1H265.232L266.569 136.796L267.913 133.1H269.054L267.108 138H265.967L264.042 133.1Z" fill="#42535E"/>
<path d="M273.942 138L273.557 137.048H271.289L270.904 138H269.763L271.891 133.1H273.032L275.125 138H273.942ZM271.653 136.159H273.2L272.43 134.255L271.653 136.159Z" fill="#42535E"/>
<path d="M276.735 133.1H277.841V138H276.735V133.1Z" fill="#42535E"/>
<path d="M280.029 133.1H281.135V137.034H283.235V138H280.029V133.1Z" fill="#42535E"/>
<path d="M288.637 138L288.252 137.048H285.984L285.599 138H284.458L286.586 133.1H287.727L289.82 138H288.637ZM286.348 136.159H287.895L287.125 134.255L286.348 136.159Z" fill="#42535E"/>
<path d="M293.684 133.1C294.225 133.1 294.652 133.21 294.965 133.429C295.278 133.648 295.434 133.947 295.434 134.325C295.434 134.586 295.357 134.815 295.203 135.011C295.054 135.202 294.848 135.333 294.587 135.403C294.904 135.464 295.154 135.606 295.336 135.83C295.518 136.049 295.609 136.32 295.609 136.642C295.609 137.062 295.443 137.393 295.112 137.636C294.781 137.879 294.33 138 293.761 138H291.43V133.1H293.684ZM293.628 135.074C293.838 135.074 294.001 135.027 294.118 134.934C294.239 134.836 294.3 134.701 294.3 134.528C294.3 134.36 294.239 134.229 294.118 134.136C294.001 134.043 293.838 133.998 293.628 134.003H292.536V135.074H293.628ZM293.628 137.097C293.889 137.097 294.095 137.046 294.244 136.943C294.393 136.836 294.468 136.689 294.468 136.502C294.468 136.325 294.393 136.185 294.244 136.082C294.095 135.979 293.889 135.93 293.628 135.935H292.536V137.097H293.628Z" fill="#42535E"/>
<path d="M297.513 133.1H298.619V138H297.513V133.1Z" fill="#42535E"/>
<path d="M300.808 133.1H301.914V137.034H304.014V138H300.808V133.1Z" fill="#42535E"/>
<path d="M305.77 133.1H306.876V138H305.77V133.1Z" fill="#42535E"/>
<path d="M308.581 133.1H312.676V134.038H311.178V138H310.072V134.038H308.581V133.1Z" fill="#42535E"/>
<path d="M318.512 133.1L316.727 136.418V138H315.621V136.446L313.808 133.1H314.921L316.174 135.298L317.399 133.1H318.512Z" fill="#42535E"/>
<rect x="350" y="114" width="90" height="52" rx="4" fill="white"/>
<g clip-path="url(#clip0)">
<path d="M366.5 157.883C369.63 157.883 372.167 155.346 372.167 152.217C372.167 149.087 369.63 146.55 366.5 146.55C363.37 146.55 360.833 149.087 360.833 152.217C360.833 155.346 363.37 157.883 366.5 157.883Z" stroke="#F79841" stroke-width="1.5" stroke-linecap="round" stroke-linejoin="round"/>
<path d="M365.367 153.917V150.517" stroke="#F79841" stroke-width="1.5" stroke-linecap="round" stroke-linejoin="round"/>
<path d="M367.633 153.917V150.517" stroke="#F79841" stroke-width="1.5" stroke-linecap="round" stroke-linejoin="round"/>
</g>
<rect opacity="0.7" x="358" y="124" width="41" height="5" rx="2.5" fill="#A5B2B9"/>
<rect opacity="0.7" x="358" y="134" width="60" height="5" rx="2.5" fill="#A5B2B9"/>
<rect opacity="0.1" x="382" y="147" width="42" height="12" rx="6" fill="#42535E"/>
<rect x="350" y="176" width="90" height="52" rx="4" fill="white"/>
<path d="M365.393 209.138C365.674 207.977 367.326 207.977 367.607 209.138C367.65 209.312 367.732 209.474 367.849 209.61C367.966 209.747 368.113 209.853 368.279 209.922C368.445 209.991 368.624 210.019 368.803 210.005C368.982 209.992 369.155 209.936 369.308 209.842C370.329 209.221 371.497 210.388 370.875 211.409C370.782 211.562 370.726 211.735 370.712 211.914C370.698 212.093 370.727 212.272 370.796 212.438C370.864 212.604 370.971 212.751 371.107 212.868C371.243 212.984 371.405 213.067 371.579 213.109C372.74 213.391 372.74 215.043 371.579 215.324C371.405 215.366 371.243 215.449 371.107 215.566C370.97 215.683 370.863 215.83 370.795 215.996C370.726 216.161 370.698 216.341 370.711 216.52C370.725 216.699 370.781 216.872 370.875 217.025C371.496 218.045 370.329 219.214 369.308 218.592C369.155 218.499 368.982 218.443 368.803 218.429C368.624 218.415 368.444 218.444 368.279 218.512C368.113 218.581 367.966 218.688 367.849 218.824C367.733 218.96 367.65 219.122 367.607 219.296C367.326 220.457 365.674 220.457 365.393 219.296C365.35 219.122 365.268 218.96 365.151 218.823C365.034 218.687 364.887 218.58 364.721 218.512C364.555 218.443 364.376 218.414 364.197 218.428C364.018 218.442 363.845 218.498 363.692 218.591C362.672 219.213 361.503 218.045 362.125 217.025C362.218 216.871 362.274 216.698 362.288 216.52C362.302 216.341 362.273 216.161 362.204 215.996C362.136 215.83 362.029 215.683 361.893 215.566C361.757 215.449 361.595 215.367 361.421 215.324C360.26 215.043 360.26 213.391 361.421 213.109C361.595 213.067 361.757 212.984 361.893 212.868C362.03 212.751 362.137 212.604 362.205 212.438C362.274 212.272 362.303 212.093 362.289 211.914C362.275 211.735 362.219 211.562 362.125 211.408C361.504 210.388 362.672 209.22 363.692 209.842C364.353 210.244 365.21 209.888 365.393 209.138Z" stroke="#A5B2B9" stroke-width="1.5" stroke-linecap="round" stroke-linejoin="round"/>
<path d="M366.5 216.2C367.595 216.2 368.483 215.312 368.483 214.217C368.483 213.121 367.595 212.233 366.5 212.233C365.405 212.233 364.517 213.121 364.517 214.217C364.517 215.312 365.405 216.2 366.5 216.2Z" stroke="#A5B2B9" stroke-width="1.5" stroke-linecap="round" stroke-linejoin="round"/>
<rect opacity="0.7" x="358" y="186" width="41" height="5" rx="2.5" fill="#A5B2B9"/>
<rect opacity="0.7" x="358" y="196" width="60" height="5" rx="2.5" fill="#A5B2B9"/>
<rect opacity="0.1" x="382" y="209" width="42" height="12" rx="6" fill="#42535E"/>
<rect x="250" y="176" width="90" height="52" rx="4" fill="white"/>
<path fill-rule="evenodd" clip-rule="evenodd" d="M261.477 214.827C261.477 211.877 263.877 209.477 266.827 209.477C269.776 209.477 272.176 211.877 272.176 214.827C272.176 217.776 269.776 220.176 266.827 220.176C263.877 220.176 261.477 217.776 261.477 214.827ZM260.318 214.827C260.318 218.415 263.238 221.335 266.827 221.335C270.416 221.335 273.336 218.415 273.336 214.827C273.336 211.237 270.416 208.318 266.827 208.318C263.238 208.318 260.318 211.237 260.318 214.827ZM265.823 216.492C265.936 216.605 266.085 216.662 266.234 216.662C266.378 216.662 266.523 216.608 266.636 216.5L269.441 213.795C269.671 213.572 269.678 213.205 269.456 212.976C269.233 212.745 268.866 212.738 268.636 212.96L266.241 215.27L265.565 214.591C265.339 214.365 264.971 214.365 264.744 214.591C264.517 214.817 264.517 215.184 264.743 215.41L265.823 216.492Z" fill="#2BB371"/>
<rect opacity="0.7" x="258" y="186" width="41" height="5" rx="2.5" fill="#A5B2B9"/>
<rect opacity="0.7" x="258" y="196" width="60" height="5" rx="2.5" fill="#A5B2B9"/>
<rect opacity="0.1" x="282" y="209" width="42" height="12" rx="6" fill="#42535E"/>
<rect x="150" y="176" width="90" height="52" rx="4" fill="white"/>
<g clip-path="url(#clip1)">
<path d="M171.033 208.55H161.967C161.341 208.55 160.833 209.057 160.833 209.683V211.95C160.833 212.576 161.341 213.083 161.967 213.083H171.033C171.659 213.083 172.167 212.576 172.167 211.95V209.683C172.167 209.057 171.659 208.55 171.033 208.55Z" stroke="#42535E" stroke-width="1.5" stroke-linecap="round" stroke-linejoin="round"/>
<path d="M171.033 215.35H161.967C161.341 215.35 160.833 215.858 160.833 216.483V218.75C160.833 219.376 161.341 219.883 161.967 219.883H171.033C171.659 219.883 172.167 219.376 172.167 218.75V216.483C172.167 215.858 171.659 215.35 171.033 215.35Z" stroke="#42535E" stroke-width="1.5" stroke-linecap="round" stroke-linejoin="round"/>
<path d="M163.1 210.817H163.106" stroke="#42535E" stroke-width="1.5" stroke-linecap="round" stroke-linejoin="round"/>
<path d="M163.1 217.617H163.106" stroke="#42535E" stroke-width="1.5" stroke-linecap="round" stroke-linejoin="round"/>
</g>
<rect opacity="0.7" x="158" y="186" width="41" height="5" rx="2.5" fill="#A5B2B9"/>
<rect opacity="0.7" x="158" y="196" width="60" height="5" rx="2.5" fill="#A5B2B9"/>
<rect opacity="0.1" x="182" y="209" width="42" height="12" rx="6" fill="#42535E"/>
<path d="M150 249C150 246.791 151.791 245 154 245H436C438.209 245 440 246.791 440 249V347H150V249Z" fill="white"/>
<rect opacity="0.2" x="160" y="256" width="60" height="10" rx="5" fill="#A5B2B9"/>
<rect x="370" y="256" width="60" height="10" rx="5" fill="#2DB572"/>
<circle opacity="0.7" cx="234" cy="261" r="5" fill="#A5B2B9"/>
<rect opacity="0.5" x="160" y="277" width="82" height="39" rx="4" fill="#D9E2E8"/>
<path d="M160 330C160 327.791 161.791 326 164 326H238C240.209 326 242 327.791 242 330V347H160V330Z" fill="#D9E2E8"/>
<rect opacity="0.5" x="254" y="277" width="82" height="39" rx="4" fill="#D9E2E8"/>
<path d="M254 330C254 327.791 255.791 326 258 326H332C334.209 326 336 327.791 336 330V347H254V330Z" fill="#D9E2E8"/>
<rect x="348" y="277" width="82" height="39" rx="4" fill="#D9E2E8"/>
<path opacity="0.5" d="M348 330C348 327.791 349.791 326 352 326H426C428.209 326 430 327.791 430 330V347H348V330Z" fill="#D9E2E8"/>
<g filter="url(#filter0_d)">
<rect x="88" y="60" width="152" height="106" rx="4" fill="white"/>
</g>
<path d="M129.067 136.5H124.04L120.27 148.1L112.73 124.9L108.96 136.5H103.933" stroke="#2DB572" stroke-width="1.5" stroke-linecap="round" stroke-linejoin="round"/>
<path d="M164.404 141.448V143.06H161.492V148H159.802V143.06H150.598V141.604L157.488 129.8H159.256L152.522 141.448H159.802V136.352H161.492V141.448H164.404Z" fill="#42535E"/>
<path d="M168.408 145.452C169.014 145.799 169.69 146.076 170.436 146.284C171.198 146.475 171.935 146.57 172.646 146.57C174.5 146.57 175.93 145.885 176.936 144.516C177.958 143.129 178.47 141.231 178.47 138.822C178.47 138.579 178.452 138.181 178.418 137.626C178.019 138.822 177.334 139.749 176.364 140.408C175.393 141.067 174.206 141.396 172.802 141.396C171.016 141.396 169.604 140.885 168.564 139.862C167.524 138.839 167.004 137.444 167.004 135.676C167.004 133.839 167.558 132.391 168.668 131.334C169.777 130.259 171.268 129.722 173.14 129.722C175.358 129.722 177.092 130.485 178.34 132.01C179.588 133.535 180.212 135.685 180.212 138.458C180.212 140.382 179.908 142.072 179.302 143.528C178.695 144.984 177.828 146.111 176.702 146.908C175.592 147.705 174.284 148.104 172.776 148.104C171.961 148.104 171.094 147.991 170.176 147.766C169.274 147.523 168.442 147.211 167.68 146.83L168.408 145.452ZM173.27 131.282C171.9 131.282 170.791 131.681 169.942 132.478C169.11 133.258 168.694 134.333 168.694 135.702C168.694 137.002 169.084 138.033 169.864 138.796C170.661 139.559 171.736 139.94 173.088 139.94C174.076 139.94 174.934 139.741 175.662 139.342C176.407 138.926 176.97 138.389 177.352 137.73C177.75 137.054 177.95 136.326 177.95 135.546C177.95 134.887 177.776 134.229 177.43 133.57C177.083 132.911 176.554 132.365 175.844 131.932C175.15 131.499 174.292 131.282 173.27 131.282Z" fill="#42535E"/>
<path d="M184.26 145.842C184.59 145.842 184.867 145.955 185.092 146.18C185.318 146.405 185.43 146.683 185.43 147.012C185.43 147.341 185.318 147.627 185.092 147.87C184.867 148.095 184.59 148.208 184.26 148.208C183.931 148.208 183.654 148.095 183.428 147.87C183.22 147.645 183.116 147.359 183.116 147.012C183.116 146.683 183.22 146.405 183.428 146.18C183.654 145.955 183.931 145.842 184.26 145.842Z" fill="#42535E"/>
<path d="M190.015 145.452C190.622 145.799 191.298 146.076 192.043 146.284C192.806 146.475 193.542 146.57 194.253 146.57C196.108 146.57 197.538 145.885 198.543 144.516C199.566 143.129 200.077 141.231 200.077 138.822C200.077 138.579 200.06 138.181 200.025 137.626C199.626 138.822 198.942 139.749 197.971 140.408C197 141.067 195.813 141.396 194.409 141.396C192.624 141.396 191.211 140.885 190.171 139.862C189.131 138.839 188.611 137.444 188.611 135.676C188.611 133.839 189.166 132.391 190.275 131.334C191.384 130.259 192.875 129.722 194.747 129.722C196.966 129.722 198.699 130.485 199.947 132.01C201.195 133.535 201.819 135.685 201.819 138.458C201.819 140.382 201.516 142.072 200.909 143.528C200.302 144.984 199.436 146.111 198.309 146.908C197.2 147.705 195.891 148.104 194.383 148.104C193.568 148.104 192.702 147.991 191.783 147.766C190.882 147.523 190.05 147.211 189.287 146.83L190.015 145.452ZM194.877 131.282C193.508 131.282 192.398 131.681 191.549 132.478C190.717 133.258 190.301 134.333 190.301 135.702C190.301 137.002 190.691 138.033 191.471 138.796C192.268 139.559 193.343 139.94 194.695 139.94C195.683 139.94 196.541 139.741 197.269 139.342C198.014 138.926 198.578 138.389 198.959 137.73C199.358 137.054 199.557 136.326 199.557 135.546C199.557 134.887 199.384 134.229 199.037 133.57C198.69 132.911 198.162 132.365 197.451 131.932C196.758 131.499 195.9 131.282 194.877 131.282Z" fill="#42535E"/>
<path d="M209.144 129.722C210.6 129.722 211.726 130.199 212.524 131.152C213.338 132.088 213.746 133.414 213.746 135.13C213.746 136.846 213.338 138.181 212.524 139.134C211.726 140.07 210.6 140.538 209.144 140.538C207.705 140.538 206.578 140.07 205.764 139.134C204.966 138.181 204.568 136.846 204.568 135.13C204.568 133.414 204.966 132.088 205.764 131.152C206.578 130.199 207.705 129.722 209.144 129.722ZM209.144 130.814C208.086 130.814 207.272 131.195 206.7 131.958C206.128 132.703 205.842 133.761 205.842 135.13C205.842 136.517 206.128 137.583 206.7 138.328C207.272 139.073 208.086 139.446 209.144 139.446C210.218 139.446 211.042 139.073 211.614 138.328C212.186 137.583 212.472 136.517 212.472 135.13C212.472 133.743 212.177 132.677 211.588 131.932C211.016 131.187 210.201 130.814 209.144 130.814ZM221.546 129.8H223.054L209.378 148H207.844L221.546 129.8ZM222.066 137.262C223.522 137.262 224.648 137.739 225.446 138.692C226.26 139.628 226.668 140.954 226.668 142.67C226.668 144.386 226.26 145.721 225.446 146.674C224.648 147.61 223.522 148.078 222.066 148.078C220.627 148.078 219.5 147.61 218.686 146.674C217.888 145.721 217.49 144.386 217.49 142.67C217.49 140.954 217.888 139.628 218.686 138.692C219.5 137.739 220.627 137.262 222.066 137.262ZM222.066 138.354C221.008 138.354 220.194 138.735 219.622 139.498C219.05 140.243 218.764 141.301 218.764 142.67C218.764 144.057 219.05 145.123 219.622 145.868C220.194 146.613 221.008 146.986 222.066 146.986C223.14 146.986 223.964 146.613 224.536 145.868C225.108 145.123 225.394 144.057 225.394 142.67C225.394 141.283 225.099 140.217 224.51 139.472C223.938 138.727 223.123 138.354 222.066 138.354Z" fill="#42535E"/>
<path d="M110.128 86L109.468 84.368H105.58L104.92 86H102.964L106.612 77.6H108.568L112.156 86H110.128ZM106.204 82.844H108.856L107.536 79.58L106.204 82.844Z" fill="#88949A"/>
<path d="M112.573 77.6H114.613L116.905 83.936L119.209 77.6H121.165L117.829 86H115.873L112.573 77.6Z" fill="#88949A"/>
<path d="M123.186 77.6H129.582V79.172H125.082V80.996H129.126V82.568H125.082V84.428H129.714V86H123.186V77.6Z" fill="#88949A"/>
<path d="M137.462 86L136.13 83.6H135.95H134.198V86H132.302V77.6H135.95C137.046 77.6 137.894 77.856 138.494 78.368C139.094 78.872 139.394 79.588 139.394 80.516C139.394 81.164 139.258 81.72 138.986 82.184C138.722 82.64 138.334 82.988 137.822 83.228L139.61 86H137.462ZM134.198 82.016H135.95C136.478 82.016 136.882 81.896 137.162 81.656C137.45 81.408 137.594 81.048 137.594 80.576C137.594 80.112 137.45 79.764 137.162 79.532C136.882 79.292 136.478 79.172 135.95 79.172H134.198V82.016Z" fill="#88949A"/>
<path d="M148.29 86L147.63 84.368H143.742L143.082 86H141.126L144.774 77.6H146.73L150.318 86H148.29ZM144.366 82.844H147.018L145.698 79.58L144.366 82.844Z" fill="#88949A"/>
<path d="M157.709 81.764H159.353V85.028C158.905 85.356 158.369 85.624 157.745 85.832C157.121 86.032 156.521 86.132 155.945 86.132C155.105 86.132 154.345 85.944 153.665 85.568C152.985 85.184 152.449 84.664 152.057 84.008C151.665 83.344 151.469 82.604 151.469 81.788C151.469 80.98 151.669 80.248 152.069 79.592C152.469 78.928 153.017 78.408 153.713 78.032C154.417 77.656 155.197 77.468 156.053 77.468C156.677 77.468 157.285 77.58 157.877 77.804C158.477 78.028 158.993 78.332 159.425 78.716L158.357 80.072C158.045 79.776 157.685 79.544 157.277 79.376C156.869 79.208 156.461 79.124 156.053 79.124C155.565 79.124 155.117 79.244 154.709 79.484C154.309 79.716 153.993 80.036 153.761 80.444C153.529 80.844 153.413 81.292 153.413 81.788C153.413 82.284 153.529 82.74 153.761 83.156C154.001 83.564 154.321 83.888 154.721 84.128C155.129 84.36 155.577 84.476 156.065 84.476C156.313 84.476 156.581 84.436 156.869 84.356C157.157 84.268 157.437 84.152 157.709 84.008V81.764Z" fill="#88949A"/>
<path d="M162.11 77.6H168.506V79.172H164.006V80.996H168.05V82.568H164.006V84.428H168.638V86H162.11V77.6Z" fill="#88949A"/>
<path d="M110.128 105L109.468 103.368H105.58L104.92 105H102.964L106.612 96.6H108.568L112.156 105H110.128ZM106.204 101.844H108.856L107.536 98.58L106.204 101.844Z" fill="#88949A"/>
<path d="M112.573 96.6H114.613L116.905 102.936L119.209 96.6H121.165L117.829 105H115.873L112.573 96.6Z" fill="#88949A"/>
<path d="M128.758 105L128.098 103.368H124.21L123.55 105H121.594L125.242 96.6H127.198L130.786 105H128.758ZM124.834 101.844H127.486L126.166 98.58L124.834 101.844Z" fill="#88949A"/>
<path d="M132.759 96.6H134.655V105H132.759V96.6Z" fill="#88949A"/>
<path d="M137.621 96.6H139.517V103.344H143.117V105H137.621V96.6Z" fill="#88949A"/>
<path d="M151.593 105L150.933 103.368H147.045L146.385 105H144.429L148.077 96.6H150.033L153.621 105H151.593ZM147.669 101.844H150.321L149.001 98.58L147.669 101.844Z" fill="#88949A"/>
<path d="M159.458 96.6C160.386 96.6 161.118 96.788 161.654 97.164C162.19 97.54 162.458 98.052 162.458 98.7C162.458 99.148 162.326 99.54 162.062 99.876C161.806 100.204 161.454 100.428 161.006 100.548C161.55 100.652 161.978 100.896 162.29 101.28C162.602 101.656 162.758 102.12 162.758 102.672C162.758 103.392 162.474 103.96 161.906 104.376C161.338 104.792 160.566 105 159.59 105H155.594V96.6H159.458ZM159.362 99.984C159.722 99.984 160.002 99.904 160.202 99.744C160.41 99.576 160.514 99.344 160.514 99.048C160.514 98.76 160.41 98.536 160.202 98.376C160.002 98.216 159.722 98.14 159.362 98.148H157.49V99.984H159.362ZM159.362 103.452C159.81 103.452 160.162 103.364 160.418 103.188C160.674 103.004 160.802 102.752 160.802 102.432C160.802 102.128 160.674 101.888 160.418 101.712C160.162 101.536 159.81 101.452 159.362 101.46H157.49V103.452H159.362Z" fill="#88949A"/>
<path d="M165.237 96.6H167.133V105H165.237V96.6Z" fill="#88949A"/>
<path d="M170.099 96.6H171.995V103.344H175.595V105H170.099V96.6Z" fill="#88949A"/>
<path d="M177.82 96.6H179.716V105H177.82V96.6Z" fill="#88949A"/>
<path d="M181.854 96.6H188.874V98.208H186.306V105H184.41V98.208H181.854V96.6Z" fill="#88949A"/>
<path d="M198.093 96.6L195.033 102.288V105H193.137V102.336L190.029 96.6H191.937L194.085 100.368L196.185 96.6H198.093Z" fill="#88949A"/>
<defs>
<filter id="filter0_d" x="18" y="0" width="292" height="246" filterUnits="userSpaceOnUse" color-interpolation-filters="sRGB">
<feFlood flood-opacity="0" result="BackgroundImageFix"/>
<feColorMatrix in="SourceAlpha" type="matrix" values="0 0 0 0 0 0 0 0 0 0 0 0 0 0 0 0 0 0 127 0"/>
<feOffset dy="10"/>
<feGaussianBlur stdDeviation="35"/>
<feColorMatrix type="matrix" values="0 0 0 0 0.433705 0 0 0 0 0.501837 0 0 0 0 0.541915 0 0 0 0.4 0"/>
<feBlend mode="normal" in2="BackgroundImageFix" result="effect1_dropShadow"/>
<feBlend mode="normal" in="SourceGraphic" in2="effect1_dropShadow" result="shape"/>
</filter>
<clipPath id="clip0">
<rect width="13.6" height="13.6" fill="white" transform="translate(359.7 145.417)"/>
</clipPath>
<clipPath id="clip1">
<rect width="13.6" height="13.6" fill="white" transform="translate(159.7 207.417)"/>
</clipPath>
</defs>
</svg>
