<svg width="40" height="40" viewBox="0 0 40 40" fill="none" xmlns="http://www.w3.org/2000/svg">
<path fill-rule="evenodd" clip-rule="evenodd" d="M21.2198 14.2462C21.2198 14.2271 21.217 14.2085 21.2143 14.1899C21.2116 14.1712 21.2088 14.1526 21.2088 14.1335H24.9779C26.9998 14.1335 28.6888 15.639 28.9125 17.6408L30.8088 33.7153H13.9816L15.2907 22.519C18.7288 21.3244 21.2198 18.0862 21.2198 14.2462ZM5.45435 14.2462C5.45435 10.4008 8.58344 7.2735 12.4271 7.2735C16.2725 7.2735 19.4016 10.4008 19.4016 14.2462C19.4016 18.0917 16.2725 21.219 12.4271 21.219C8.58344 21.219 5.45435 18.0917 5.45435 14.2462ZM37.2725 33.7153H32.6398L30.7198 17.4335C30.3944 14.5153 27.9253 12.3153 24.978 12.3153H20.9907C20.1071 8.39532 16.6107 5.45532 12.4271 5.45532C7.57981 5.45532 3.63617 9.39714 3.63617 14.2462C3.63617 19.0953 7.57981 23.0371 12.4271 23.0371C12.6658 23.0371 12.8963 23.006 13.1263 22.9749L13.1264 22.9749C13.2204 22.9622 13.3144 22.9495 13.4089 22.939L12.1507 33.7153H7.51799C7.01617 33.7153 6.6089 34.1226 6.6089 34.6244C6.6089 35.128 7.01617 35.5335 7.51799 35.5335H37.2725C37.7744 35.5335 38.1816 35.128 38.1816 34.6244C38.1816 34.1226 37.7744 33.7153 37.2725 33.7153ZM25.1385 24.4593C25.1567 24.4593 25.1749 24.4593 25.1931 24.4575C25.6949 24.4266 26.0767 23.9975 26.0458 23.4957L25.7694 18.912C25.7385 18.412 25.3767 18.0393 24.8058 18.0593C24.3058 18.0902 23.924 18.5193 23.9549 19.0211L24.2312 23.6048C24.2603 24.0866 24.6603 24.4593 25.1385 24.4593ZM13.7626 11.6264C14.1171 11.2719 14.6935 11.2719 15.048 11.6264C15.4026 11.981 15.4026 12.5573 15.048 12.9119L13.7135 14.2464L15.048 15.581C15.4026 15.9355 15.4026 16.5119 15.048 16.8664C14.8698 17.0428 14.6371 17.1319 14.4044 17.1319C14.1735 17.1319 13.9407 17.0428 13.7626 16.8664L12.428 15.5319L11.0935 16.8664C10.9171 17.0428 10.6844 17.1319 10.4517 17.1319C10.2189 17.1319 9.9862 17.0428 9.80802 16.8664C9.45348 16.5119 9.45348 15.9355 9.80802 15.581L11.1426 14.2464L9.80802 12.9119C9.45348 12.5573 9.45348 11.981 9.80802 11.6264C10.1626 11.2719 10.7389 11.2719 11.0935 11.6264L12.428 12.961L13.7626 11.6264Z" fill="#2BB371"/>
</svg>
