<svg width="40" height="40" viewBox="0 0 40 40" fill="none" xmlns="http://www.w3.org/2000/svg">
<path fill-rule="evenodd" clip-rule="evenodd" d="M34.7816 8.78441H18.4707C18.0489 6.88259 16.3544 5.45532 14.3271 5.45532C12.3016 5.45532 10.6071 6.88259 10.1853 8.78441H4.78163C4.27981 8.78441 3.87254 9.18987 3.87254 9.6935C3.87254 10.1953 4.27981 10.6026 4.78163 10.6026H10.1798C10.5944 12.5117 12.2944 13.9499 14.3271 13.9499C16.3616 13.9499 18.0616 12.5117 18.4762 10.6026H34.7816C35.2834 10.6026 35.6907 10.1953 35.6907 9.6935C35.6907 9.18987 35.2834 8.78441 34.7816 8.78441ZM25.0089 17.9653C26.3434 17.9653 27.4289 19.0471 27.4361 20.3799V20.3835C27.4361 20.3878 27.4373 20.391 27.4386 20.3948L27.4398 20.398C27.4379 21.7362 26.3489 22.8235 25.0089 22.8235C23.6707 22.8235 22.5798 21.7344 22.5798 20.3944C22.5798 19.0562 23.6707 17.9653 25.0089 17.9653ZM4.54526 21.2926H20.8616C21.2744 23.2035 22.9762 24.6417 25.0089 24.6417C27.0434 24.6417 28.7453 23.2035 29.158 21.2926H34.5453C35.0471 21.2926 35.4544 20.8853 35.4544 20.3835C35.4544 19.8817 35.0471 19.4744 34.5453 19.4744H29.1507C28.7289 17.5744 27.0362 16.1471 25.0089 16.1471C22.9834 16.1471 21.2907 17.5744 20.8689 19.4744H4.54526C4.04344 19.4744 3.63617 19.8817 3.63617 20.3835C3.63617 20.8853 4.04344 21.2926 4.54526 21.2926ZM18.4689 30.1648H34.7816C35.2834 30.1648 35.6907 30.572 35.6907 31.0739C35.6907 31.5775 35.2834 31.983 34.7816 31.983H18.478C18.0653 33.8957 16.3634 35.3357 14.3271 35.3357C12.2925 35.3357 10.5907 33.8957 10.178 31.983H4.78163C4.27981 31.983 3.87254 31.5775 3.87254 31.0739C3.87254 30.572 4.27981 30.1648 4.78163 30.1648H10.1871C10.6107 28.2666 12.3034 26.8411 14.3271 26.8411C16.3525 26.8411 18.0453 28.2666 18.4689 30.1648ZM14.327 12.1317C12.9889 12.1317 11.8979 11.0408 11.8979 9.7026C11.8979 8.3626 12.9889 7.2735 14.327 7.2735C15.667 7.2735 16.7579 8.3626 16.7579 9.7026C16.7579 11.0408 15.667 12.1317 14.327 12.1317ZM11.8979 31.0884C11.8979 32.4284 12.9889 33.5175 14.327 33.5175C15.667 33.5175 16.7579 32.4284 16.7579 31.0884C16.7579 29.7484 15.667 28.6593 14.327 28.6593C12.9889 28.6593 11.8979 29.7484 11.8979 31.0884Z" fill="#2BB371"/>
</svg>
