<svg width="82" height="80" viewBox="0 0 82 80" fill="none" xmlns="http://www.w3.org/2000/svg">
<path d="M76.6252 10.0002C79.5028 10.0002 81.8757 12.1232 81.9955 14.8239L82.0002 15.0382V56.0892C82.0002 58.8185 79.7008 61.0122 76.8513 61.1229L76.6252 61.1272H65.7112C65.159 61.1272 64.7112 60.6795 64.7112 60.1272C64.7112 59.6144 65.0973 59.1917 65.5946 59.134L65.7112 59.1272H76.6252C78.4427 59.1272 79.8968 57.8421 79.995 56.2599L80.0002 56.0892V15.0382C80.0002 13.4354 78.6091 12.0956 76.8186 12.0051L76.6252 12.0002H5.37424C3.55728 12.0002 2.10361 13.2849 2.00552 14.8676L2.00024 15.0382V56.0892C2.00024 57.6914 3.39164 59.0318 5.18104 59.1224L5.37424 59.1272H20.4952C21.0475 59.1272 21.4952 59.575 21.4952 60.1272C21.4952 60.6401 21.1092 61.0628 20.6119 61.1205L20.4952 61.1272H5.37424C2.49782 61.1272 0.124792 59.0034 0.00498914 56.3036L0.000244141 56.0892V15.0382C0.000244141 12.3085 2.2992 10.1153 5.14821 10.0046L5.37424 10.0002H76.6252Z" fill="#2BB371"/>
<path fill-rule="evenodd" clip-rule="evenodd" d="M10.3604 18.2585C10.3604 19.2705 9.53943 20.0915 8.52743 20.0915C7.51543 20.0915 6.69543 19.2705 6.69543 18.2585C6.69543 17.2465 7.51543 16.4255 8.52743 16.4255C9.53943 16.4255 10.3604 17.2465 10.3604 18.2585Z" fill="#2BB371"/>
<path fill-rule="evenodd" clip-rule="evenodd" d="M16.3624 18.2585C16.3624 19.2705 15.5414 20.0915 14.5294 20.0915C13.5174 20.0915 12.6974 19.2705 12.6974 18.2585C12.6974 17.2465 13.5174 16.4255 14.5294 16.4255C15.5414 16.4255 16.3624 17.2465 16.3624 18.2585Z" fill="#2BB371"/>
<path fill-rule="evenodd" clip-rule="evenodd" d="M22.3646 18.2585C22.3646 19.2705 21.5436 20.0915 20.5316 20.0915C19.5196 20.0915 18.6996 19.2705 18.6996 18.2585C18.6996 17.2465 19.5196 16.4255 20.5316 16.4255C21.5436 16.4255 22.3646 17.2465 22.3646 18.2585Z" fill="#2BB371"/>
<path d="M64.494 33.6182C64.8609 33.2054 65.493 33.1681 65.9058 33.535C68.8488 36.1508 71.0866 39.4786 72.3829 43.2028C72.5644 43.7243 72.2888 44.2944 71.7672 44.4759C71.2456 44.6575 70.6756 44.3818 70.494 43.8602C69.3105 40.46 67.2663 37.4201 64.5771 35.0299C64.1643 34.663 64.1271 34.0309 64.494 33.6182Z" fill="#2BB371"/>
<path d="M26.0255 28.7012C26.5108 28.4376 27.1179 28.6173 27.3815 29.1026C27.6452 29.5879 27.4655 30.195 26.9802 30.4586C22.3826 32.9561 18.7246 36.9328 16.627 41.7277C16.4056 42.2337 15.816 42.4644 15.31 42.2431C14.804 42.0217 14.5733 41.4321 14.7947 40.9261C17.0707 35.7233 21.0378 31.4105 26.0255 28.7012Z" fill="#2BB371"/>
<path fill-rule="evenodd" clip-rule="evenodd" d="M20.7761 64.7774C19.6705 61.9893 19.0957 58.9991 19.0957 55.9238C19.0957 41.5815 31.5779 30.3946 45.9893 32.0876C56.8996 33.3682 65.7269 42.2286 66.9534 53.138C67.3915 57.0326 66.908 60.8569 65.574 64.3797C64.3866 67.5174 61.4222 69.6018 58.096 69.6018L28.0981 69.6108C24.8728 69.612 21.9388 67.7102 20.7761 64.7774ZM64.966 53.3615C63.8434 43.3766 55.7434 35.2463 45.756 34.074C32.537 32.521 21.0957 42.775 21.0957 55.9238C21.0957 58.7458 21.6224 61.486 22.6353 64.0403C23.4892 66.1943 25.676 67.6117 28.0974 67.6108L58.0957 67.6018C60.584 67.6018 62.808 66.038 63.7035 63.6717C64.9254 60.445 65.3685 56.9401 64.966 53.3615Z" fill="#2BB371"/>
<path d="M43.0978 31.912C43.6106 31.912 44.0333 32.298 44.0911 32.7954L44.0978 32.912V39.091C44.0978 39.6433 43.6501 40.091 43.0978 40.091C42.5849 40.091 42.1623 39.7049 42.1045 39.2076L42.0978 39.091V32.912C42.0978 32.3597 42.5455 31.912 43.0978 31.912Z" fill="#2BB371"/>
<path fill-rule="evenodd" clip-rule="evenodd" d="M64.6387 64.0258C65.8857 60.7328 66.3897 57.0728 65.9597 53.2498C64.7847 42.7988 56.3177 34.3068 45.8727 33.0808C31.9297 31.4428 20.0957 42.3078 20.0957 55.9238C20.0957 58.9268 20.6667 61.7888 21.7057 64.4088C22.7297 66.9918 25.3197 68.6118 28.0977 68.6108L58.0957 68.6018C61.0207 68.6018 63.6037 66.7608 64.6387 64.0258Z" fill="#2DB572" fill-opacity="0.2" stroke="#2BB371" stroke-width="2" stroke-linecap="round" stroke-linejoin="round"/>
<path d="M26.8162 39.688C27.1767 39.3276 27.7439 39.2998 28.1362 39.6048L28.2304 39.688L32.2234 43.681C32.6139 44.0716 32.6139 44.7047 32.2234 45.0952C31.8629 45.4557 31.2957 45.4835 30.9034 45.1784L30.8092 45.0952L26.8162 41.1022C26.4257 40.7117 26.4257 40.0786 26.8162 39.688Z" fill="#2BB371"/>
<path d="M26.3642 54.8217C26.9165 54.8217 27.3642 55.2694 27.3642 55.8217C27.3642 56.3345 26.9781 56.7572 26.4808 56.8149L26.3642 56.8217H20.1852C19.6329 56.8217 19.1852 56.3739 19.1852 55.8217C19.1852 55.3088 19.5712 54.8861 20.0686 54.8284L20.1852 54.8217H26.3642Z" fill="#2BB371"/>
<path d="M65.6685 54.8217C66.2208 54.8217 66.6685 55.2694 66.6685 55.8217C66.6685 56.3345 66.2825 56.7572 65.7851 56.8149L65.6685 56.8217H59.4895C58.9372 56.8217 58.4895 56.3739 58.4895 55.8217C58.4895 55.3088 58.8755 54.8861 59.3729 54.8284L59.4895 54.8217H65.6685Z" fill="#2BB371"/>
<path fill-rule="evenodd" clip-rule="evenodd" d="M37.6853 56.0806C37.6853 53.2503 39.98 50.9556 42.8103 50.9556C45.6406 50.9556 47.9353 53.2503 47.9353 56.0806C47.9353 58.9109 45.6406 61.2056 42.8103 61.2056C39.98 61.2056 37.6853 58.9109 37.6853 56.0806ZM45.9353 56.0806C45.9353 54.3549 44.536 52.9556 42.8103 52.9556C41.0846 52.9556 39.6853 54.3549 39.6853 56.0806C39.6853 57.8063 41.0846 59.2056 42.8103 59.2056C44.536 59.2056 45.9353 57.8063 45.9353 56.0806Z" fill="#2BB371"/>
<path d="M50.9655 44.8259C52.9718 43.3928 55.4266 45.7801 54.1456 47.8006L54.0643 47.9214L47.7373 56.8364C47.4176 57.2868 46.7934 57.3927 46.343 57.0731C45.9273 56.778 45.805 56.2235 46.04 55.7856L46.1063 55.6788L52.4351 46.7612C52.5717 46.57 52.3747 46.3457 52.1775 46.4264L52.124 46.4562L43.174 52.7832C42.723 53.102 42.099 52.9948 41.7802 52.5439C41.4859 52.1276 41.5546 51.5638 41.9216 51.2288L42.0195 51.15L50.9655 44.8259Z" fill="#2BB371"/>
</svg>
