<svg width="40" height="40" viewBox="0 0 40 40" fill="none" xmlns="http://www.w3.org/2000/svg">
<path fill-rule="evenodd" clip-rule="evenodd" d="M29.7953 13.1033C31.9419 15.5491 33.2434 18.7549 33.2434 22.2643C33.2434 29.9373 27.0219 36.1589 19.3489 36.1589C11.6759 36.1589 5.45435 29.9373 5.45435 22.2643C5.45435 14.8968 11.1904 8.86743 18.4398 8.39908V5.45453H15.4468C14.9448 5.45453 14.5378 5.04752 14.5378 4.54544C14.5378 4.04336 14.9448 3.63635 15.4468 3.63635H19.3122C19.3243 3.63586 19.3366 3.63562 19.3489 3.63562C19.3612 3.63562 19.3734 3.63586 19.3856 3.63635H23.2505C23.7526 3.63635 24.1596 4.04336 24.1596 4.54544C24.1596 5.04752 23.7526 5.45453 23.2505 5.45453H20.258V8.39907C23.4105 8.60273 26.2768 9.85804 28.5097 11.8177L31.1151 9.21225C31.4702 8.85723 32.0458 8.85723 32.4008 9.21225C32.7558 9.56727 32.7558 10.1429 32.4008 10.4979L29.7953 13.1033ZM28.0866 13.9288C30.155 16.0963 31.4253 19.0322 31.4253 22.2643C31.4253 28.9332 26.0177 34.3407 19.3489 34.3407C12.6801 34.3407 7.27253 28.9332 7.27253 22.2643C7.27253 15.7041 12.5054 10.3644 19.0241 10.1923C19.125 10.2308 19.2345 10.252 19.3489 10.252C19.4633 10.252 19.5728 10.2308 19.6736 10.1923C22.7773 10.2742 25.5895 11.5276 27.6843 13.5264C27.7267 13.6106 27.7831 13.6895 27.8533 13.7597C27.9236 13.83 28.0025 13.8863 28.0866 13.9288ZM22.3689 22.2642C22.3689 20.5966 21.0164 19.2442 19.3489 19.2442C18.8442 19.2442 18.3684 19.368 17.9502 19.587L13.3981 15.0932C13.0408 14.7405 12.4652 14.7442 12.1125 15.1015C11.7598 15.4588 11.7635 16.0344 12.1208 16.3871L16.6668 20.875C16.4509 21.2909 16.3289 21.7633 16.3289 22.2642C16.3289 23.9317 17.6813 25.2842 19.3489 25.2842C21.0164 25.2842 22.3689 23.9317 22.3689 22.2642ZM18.3835 21.5484C18.235 21.7484 18.147 21.9961 18.147 22.2642C18.147 22.9275 18.6855 23.466 19.3489 23.466C20.0122 23.466 20.5507 22.9275 20.5507 22.2642C20.5507 21.6008 20.0122 21.0623 19.3489 21.0623C19.0808 21.0623 18.8331 21.1503 18.6331 21.2989C18.6017 21.3456 18.5656 21.39 18.5246 21.4316C18.4807 21.476 18.4334 21.5149 18.3835 21.5484Z" fill="#2BB371"/>
</svg>
