<svg width="82" height="80" viewBox="0 0 82 80" fill="none" xmlns="http://www.w3.org/2000/svg">
<path d="M35.448 61.1272H5.374C2.956 61.1272 1 59.3182 1 57.0892V16.0382C1 13.8082 2.956 12.0002 5.374 12.0002H76.626C79.044 12.0002 81 13.8082 81 16.0382V57.0892C81 59.3182 79.044 61.1272 76.626 61.1272H69.097" stroke="#2BB371" stroke-width="2" stroke-linecap="round" stroke-linejoin="round"/>
<path fill-rule="evenodd" clip-rule="evenodd" d="M10.3634 19.2676C10.3634 20.2796 9.54236 21.1006 8.53036 21.1006C7.51836 21.1006 6.69836 20.2796 6.69836 19.2676C6.69836 18.2556 7.51836 17.4346 8.53036 17.4346C9.54236 17.4346 10.3634 18.2556 10.3634 19.2676Z" fill="#2BB371"/>
<path fill-rule="evenodd" clip-rule="evenodd" d="M16.3654 19.2676C16.3654 20.2796 15.5444 21.1006 14.5324 21.1006C13.5204 21.1006 12.7004 20.2796 12.7004 19.2676C12.7004 18.2556 13.5204 17.4346 14.5324 17.4346C15.5444 17.4346 16.3654 18.2556 16.3654 19.2676Z" fill="#2BB371"/>
<path fill-rule="evenodd" clip-rule="evenodd" d="M22.3674 19.2676C22.3674 20.2796 21.5464 21.1006 20.5344 21.1006C19.5224 21.1006 18.7024 20.2796 18.7024 19.2676C18.7024 18.2556 19.5224 17.4346 20.5344 17.4346C21.5464 17.4346 22.3674 18.2556 22.3674 19.2676Z" fill="#2BB371"/>
<path fill-rule="evenodd" clip-rule="evenodd" d="M46.4119 62.0133H58.1329C59.9729 62.0133 61.4639 60.5223 61.4639 58.6823V58.6823C61.4639 56.8423 59.9729 55.3513 58.1329 55.3513H46.4119C44.5719 55.3513 43.0809 56.8423 43.0809 58.6823V58.6823C43.0809 60.5223 44.5719 62.0133 46.4119 62.0133Z" stroke="#2BB371" stroke-width="2"/>
<path fill-rule="evenodd" clip-rule="evenodd" d="M66.2576 29.2031C67.8346 29.2031 69.0966 30.4121 69.0966 31.8991V66.1501C69.0966 67.6361 67.8346 68.8451 66.2576 68.8451H38.3086C36.7306 68.8451 35.4476 67.6361 35.4476 66.1501V31.8991C35.4476 30.4121 36.7306 29.2031 38.3086 29.2031H66.2576Z" fill="#2DB572" fill-opacity="0.2" stroke="#2BB371" stroke-width="2" stroke-linecap="round" stroke-linejoin="round"/>
<path d="M43.2542 38.5879H61.3102" stroke="#2BB371" stroke-width="2" stroke-linecap="round" stroke-linejoin="round"/>
<path d="M43.2542 46.8162H61.3102" stroke="#2BB371" stroke-width="2" stroke-linecap="round" stroke-linejoin="round"/>
<path fill-rule="evenodd" clip-rule="evenodd" d="M66.2576 29.2031C67.8346 29.2031 69.0966 30.4121 69.0966 31.8991V66.1501C69.0966 67.6361 67.8346 68.8451 66.2576 68.8451H38.3086C36.7306 68.8451 35.4476 67.6361 35.4476 66.1501V31.8991C35.4476 30.4121 36.7306 29.2031 38.3086 29.2031H66.2576Z" fill="#2DB572" fill-opacity="0.2"/>
</svg>
