<svg width="82" height="80" viewBox="0 0 82 80" fill="none" xmlns="http://www.w3.org/2000/svg">
<path d="M76.6256 7.00024C79.5031 7.00024 81.8751 9.12315 81.9949 11.8239L81.9996 12.0382V53.0892C81.9996 55.8186 79.701 58.0122 76.8517 58.1229L76.6256 58.1272H71.7676C71.2153 58.1272 70.7676 57.6795 70.7676 57.1272C70.7676 56.6144 71.1537 56.1917 71.651 56.134L71.7676 56.1272H76.6256C78.4428 56.1272 79.8963 54.8424 79.9944 53.2599L79.9996 53.0892V12.0382C79.9996 10.4352 78.6092 9.09559 76.8189 9.00511L76.6256 9.00024H5.37463C3.55682 9.00024 2.10301 10.2848 2.00491 11.8676L1.99963 12.0382V53.0892C1.99963 54.6915 3.39114 56.0318 5.18135 56.1224L5.37463 56.1272H41.4836C42.0359 56.1272 42.4836 56.575 42.4836 57.1272C42.4836 57.6401 42.0976 58.0628 41.6003 58.1205L41.4836 58.1272H5.37463C2.49742 58.1272 0.124191 56.0036 0.00437916 53.3036L-0.000366211 53.0892V12.0382C-0.000366211 9.30829 2.29876 7.11529 5.14854 7.00463L5.37463 7.00024H76.6256Z" fill="#2BB371"/>
<path fill-rule="evenodd" clip-rule="evenodd" d="M10.364 15.2585C10.364 16.2705 9.54297 17.0915 8.53097 17.0915C7.51897 17.0915 6.69897 16.2705 6.69897 15.2585C6.69897 14.2465 7.51897 13.4255 8.53097 13.4255C9.54297 13.4255 10.364 14.2465 10.364 15.2585Z" fill="#2BB371"/>
<path fill-rule="evenodd" clip-rule="evenodd" d="M16.3659 15.2585C16.3659 16.2705 15.5449 17.0915 14.5329 17.0915C13.5209 17.0915 12.7009 16.2705 12.7009 15.2585C12.7009 14.2465 13.5209 13.4255 14.5329 13.4255C15.5449 13.4255 16.3659 14.2465 16.3659 15.2585Z" fill="#2BB371"/>
<path fill-rule="evenodd" clip-rule="evenodd" d="M22.3679 15.2585C22.3679 16.2705 21.5469 17.0915 20.5349 17.0915C19.5229 17.0915 18.7029 16.2705 18.7029 15.2585C18.7029 14.2465 19.5229 13.4255 20.5349 13.4255C21.5469 13.4255 22.3679 14.2465 22.3679 15.2585Z" fill="#2BB371"/>
<path d="M51.3536 25.2001C51.6147 24.2936 52.8473 24.2338 53.2204 25.0513L53.2658 25.1682L55.8108 33.0122C55.9812 33.5375 55.6935 34.1016 55.1682 34.272C54.6804 34.4303 54.1592 34.1935 53.9508 33.7383L53.9084 33.6294L52.3711 28.892L50.6045 35.0276C50.4626 35.5204 49.9746 35.8197 49.4807 35.7376L49.3668 35.7118C48.874 35.5698 48.5747 35.0819 48.6568 34.588L48.6826 34.4741L51.3536 25.2001Z" fill="#2BB371"/>
<path d="M38.7544 17.7611C39.0241 16.8006 40.3529 16.7984 40.6598 17.6948L40.6939 17.8168L45.2369 38.4898C45.3554 39.0292 45.0142 39.5626 44.4748 39.6811C43.9739 39.7912 43.4783 39.5048 43.3151 39.0315L43.2835 38.919L39.598 22.151L33.824 42.7187C33.5803 43.5865 32.4229 43.7007 31.9963 42.9517L31.9429 42.8442L27.697 32.995L25.2096 38.3676C25.0641 38.6818 24.7681 38.8955 24.4305 38.9392L24.3022 38.9474H16.2892C15.7369 38.9474 15.2892 38.4997 15.2892 37.9474C15.2892 37.4346 15.6752 37.0119 16.1726 36.9541L16.2892 36.9474L23.663 36.947L26.8228 30.1242C27.1679 29.3789 28.1962 29.3552 28.5915 30.0353L28.6485 30.1486L32.661 39.459L38.7544 17.7611Z" fill="#2BB371"/>
<path fill-rule="evenodd" clip-rule="evenodd" d="M73.3714 49.9686C73.3714 59.2126 65.8774 66.7066 56.6334 66.7066C47.3894 66.7066 39.8954 59.2126 39.8954 49.9686C39.8954 40.7246 47.3894 33.2306 56.6334 33.2306C65.8774 33.2306 73.3714 40.7246 73.3714 49.9686Z" fill="#2DB572" fill-opacity="0.2" stroke="#2BB371" stroke-width="2" stroke-linecap="round" stroke-linejoin="round"/>
<path fill-rule="evenodd" clip-rule="evenodd" d="M38.8954 49.9686C38.8954 40.1723 46.8371 32.2306 56.6334 32.2306C66.4297 32.2306 74.3714 40.1723 74.3714 49.9686C74.3714 59.7649 66.4297 67.7066 56.6334 67.7066C46.8371 67.7066 38.8954 59.7649 38.8954 49.9686ZM72.3714 49.9686C72.3714 41.2769 65.3251 34.2306 56.6334 34.2306C47.9417 34.2306 40.8954 41.2769 40.8954 49.9686C40.8954 58.6603 47.9417 65.7066 56.6334 65.7066C65.3251 65.7066 72.3714 58.6603 72.3714 49.9686Z" fill="#2BB371"/>
<path d="M68.246 60.5641C68.6065 60.2036 69.1737 60.1759 69.566 60.4809L69.6602 60.5641L79.4742 70.3781C79.8648 70.7687 79.8648 71.4018 79.4742 71.7923C79.1137 72.1528 78.5465 72.1806 78.1542 71.8755L78.06 71.7923L68.246 61.9783C67.8555 61.5878 67.8555 60.9547 68.246 60.5641Z" fill="#2BB371"/>
</svg>
