<svg width="82" height="80" viewBox="0 0 82 80" fill="none" xmlns="http://www.w3.org/2000/svg">
<path d="M76.6252 10.0002C79.5028 10.0002 81.8757 12.1232 81.9955 14.8239L82.0002 15.0382V56.0892C82.0002 58.8185 79.7008 61.0122 76.8513 61.1229L76.6252 61.1272H66.6362C66.084 61.1272 65.6362 60.6795 65.6362 60.1272C65.6362 59.6144 66.0223 59.1917 66.5196 59.134L66.6362 59.1272H76.6252C78.4427 59.1272 79.8968 57.8421 79.995 56.2599L80.0002 56.0892V15.0382C80.0002 13.4354 78.6091 12.0956 76.8186 12.0051L76.6252 12.0002H5.37424C3.55728 12.0002 2.10361 13.2849 2.00552 14.8676L2.00024 15.0382V56.0892C2.00024 57.6914 3.39164 59.0318 5.18104 59.1224L5.37424 59.1272H16.3312C16.8835 59.1272 17.3312 59.575 17.3312 60.1272C17.3312 60.6401 16.9452 61.0628 16.4479 61.1205L16.3312 61.1272H5.37424C2.49782 61.1272 0.124792 59.0034 0.00498914 56.3036L0.000244141 56.0892V15.0382C0.000244141 12.3085 2.2992 10.1153 5.14821 10.0046L5.37424 10.0002H76.6252Z" fill="#2BB371"/>
<path fill-rule="evenodd" clip-rule="evenodd" d="M10.3563 18.2729C10.3563 19.2849 9.53528 20.1059 8.52328 20.1059C7.51128 20.1059 6.69128 19.2849 6.69128 18.2729C6.69128 17.2609 7.51128 16.4399 8.52328 16.4399C9.53528 16.4399 10.3563 17.2609 10.3563 18.2729Z" fill="#2BB371"/>
<path fill-rule="evenodd" clip-rule="evenodd" d="M16.3582 18.2729C16.3582 19.2849 15.5372 20.1059 14.5252 20.1059C13.5132 20.1059 12.6932 19.2849 12.6932 18.2729C12.6932 17.2609 13.5132 16.4399 14.5252 16.4399C15.5372 16.4399 16.3582 17.2609 16.3582 18.2729Z" fill="#2BB371"/>
<path fill-rule="evenodd" clip-rule="evenodd" d="M22.3603 18.2729C22.3603 19.2849 21.5393 20.1059 20.5273 20.1059C19.5153 20.1059 18.6953 19.2849 18.6953 18.2729C18.6953 17.2609 19.5153 16.4399 20.5273 16.4399C21.5393 16.4399 22.3603 17.2609 22.3603 18.2729Z" fill="#2BB371"/>
<path fill-rule="evenodd" clip-rule="evenodd" d="M18.6007 29.8767H64.3567C66.163 29.8767 67.6277 31.3414 67.6277 33.1477V66.6357C67.6277 68.442 66.163 69.9067 64.3567 69.9067H18.6007C16.7944 69.9067 15.3297 68.442 15.3297 66.6357V33.1477C15.3297 31.3414 16.7944 29.8767 18.6007 29.8767ZM64.3567 31.8767H18.6007C17.899 31.8767 17.3297 32.446 17.3297 33.1477V66.6357C17.3297 67.3374 17.899 67.9067 18.6007 67.9067H64.3567C65.0584 67.9067 65.6277 67.3374 65.6277 66.6357V33.1477C65.6277 32.446 65.0584 31.8767 64.3567 31.8767Z" fill="#2BB371"/>
<path d="M50.1411 48.6252C50.3636 48.1197 50.9537 47.8903 51.4592 48.1128C52.5497 48.5928 53.5443 49.2938 54.4313 50.1808C56.3754 52.1238 57.5397 54.7657 57.6297 57.5707L57.6354 57.9221V58.8521C57.6354 59.127 57.5222 59.3898 57.3224 59.5787C56.9527 59.9283 56.1886 60.3708 54.9247 60.7832C52.9405 61.4307 50.2341 61.8131 46.6904 61.8131C43.1585 61.8131 40.4644 61.4794 38.4912 60.915C37.2361 60.556 36.4773 60.1708 36.1072 59.864C35.9108 59.7012 35.7852 59.4705 35.7534 59.2205L35.7454 59.0941V57.9221C35.7454 53.8081 38.0434 50.1015 41.6162 48.2239C42.105 47.967 42.7096 48.155 42.9666 48.6439C43.2235 49.1328 43.0354 49.7374 42.5466 49.9943C39.7124 51.4837 37.8602 54.3779 37.7505 57.6174L37.7454 57.9221L37.7451 58.5299L37.7839 58.5488C38.0249 58.6586 38.37 58.7907 38.8347 58.9314L39.0413 58.9921C40.824 59.5021 43.3351 59.8131 46.6904 59.8131C50.0337 59.8131 52.5326 59.46 54.3043 58.8819C54.8698 58.6974 55.2773 58.5227 55.5504 58.3806L55.6351 58.3339L55.6354 57.9221C55.6354 55.6278 54.7532 53.4463 53.2291 51.8143L53.0173 51.5952C52.2992 50.8772 51.5079 50.3194 50.6535 49.9433C50.148 49.7209 49.9186 49.1307 50.1411 48.6252Z" fill="#2BB371"/>
<path fill-rule="evenodd" clip-rule="evenodd" d="M39.5942 45.2432C39.5942 41.4119 42.701 38.3052 46.5322 38.3052C50.3642 38.3052 53.4702 41.4116 53.4702 45.2432C53.4702 49.0748 50.3642 52.1812 46.5322 52.1812C42.701 52.1812 39.5942 49.0745 39.5942 45.2432ZM51.4702 45.2432C51.4702 42.5161 49.2596 40.3052 46.5322 40.3052C43.8055 40.3052 41.5942 42.5165 41.5942 45.2432C41.5942 47.9699 43.8055 50.1812 46.5322 50.1812C49.2596 50.1812 51.4702 47.9703 51.4702 45.2432Z" fill="#2BB371"/>
<path d="M34.8291 47.5384C35.0824 47.0476 35.6856 46.8551 36.1764 47.1084C37.8463 47.9703 39.1028 49.4752 39.6632 51.29C39.6829 51.3537 39.6961 51.4191 39.7028 51.4853L39.7077 51.608C39.7077 52.1603 39.26 52.608 38.7077 52.608C38.2344 52.608 37.8378 52.2791 37.7341 51.8373L37.73 51.8139L37.6711 51.6386C37.2655 50.5244 36.4893 49.5943 35.4791 49.0064L35.2591 48.8857C34.7683 48.6324 34.5758 48.0292 34.8291 47.5384Z" fill="#2BB371"/>
<path d="M30.3364 46.9282C30.8887 46.9282 31.3364 47.3759 31.3364 47.9282C31.3364 48.3622 31.06 48.7315 30.6737 48.8699L30.6521 48.8758L30.5029 48.9514C30.2001 49.1157 29.9106 49.3229 29.6363 49.5698L29.4335 49.7623C28.5816 50.6143 28.0523 51.7853 27.9856 53.0214L27.9781 53.2798L28.2101 53.373C28.2532 53.3892 28.2987 53.4056 28.347 53.4225L28.5004 53.4741C29.5229 53.806 30.9852 54.0112 32.9584 54.0112C34.5919 54.0112 35.8456 53.8972 36.7627 53.6907C37.3014 53.5693 37.8366 53.9077 37.958 54.4465C38.0793 54.9853 37.7409 55.5204 37.2021 55.6418C36.1257 55.8842 34.7292 56.0112 32.9584 56.0112C30.7859 56.0112 29.1172 55.777 27.8829 55.3764C27.0686 55.1121 26.5582 54.8176 26.2921 54.5665C26.1205 54.4046 26.0126 54.1882 25.9853 53.9563L25.9784 53.8392V53.2872C25.9784 51.4176 26.7356 49.6318 28.0193 48.3481C28.5801 47.7873 29.2073 47.3374 29.8943 47.0203C29.9929 46.9748 30.0979 46.9458 30.2053 46.9341L30.3364 46.9282Z" fill="#2BB371"/>
<path fill-rule="evenodd" clip-rule="evenodd" d="M28.4849 45.6654C28.4849 43.1431 30.5296 41.0984 33.0519 41.0984C35.5733 41.0984 37.6179 43.1433 37.6179 45.6654C37.6179 48.1875 35.5733 50.2324 33.0519 50.2324C30.5296 50.2324 28.4849 48.1877 28.4849 45.6654ZM35.6179 45.6654C35.6179 44.2478 34.4687 43.0984 33.0519 43.0984C31.6341 43.0984 30.4849 44.2477 30.4849 45.6654C30.4849 47.0831 31.6341 48.2324 33.0519 48.2324C34.4687 48.2324 35.6179 47.083 35.6179 45.6654Z" fill="#2BB371"/>
<path fill-rule="evenodd" clip-rule="evenodd" d="M64.3567 68.9067H18.6007C17.3467 68.9067 16.3297 67.8897 16.3297 66.6357V33.1477C16.3297 31.8937 17.3467 30.8767 18.6007 30.8767H64.3567C65.6107 30.8767 66.6277 31.8937 66.6277 33.1477V66.6357C66.6277 67.8897 65.6107 68.9067 64.3567 68.9067Z" fill="#2DB572" fill-opacity="0.2"/>
</svg>
